<svg id="carot" xmlns="http://www.w3.org/2000/svg" width="128.006" height="142.196" viewBox="0 0 128.006 142.196">
  <path id="Path_131" data-name="Path 131" d="M507.919,908.1s-12.829,2.18-16.519-1.387.568-5.905-4.893-6.053-9.056,2.8-9.719-.662-.6-5.959-4.179-8.919-6.565-3.994-6.242-6.681l.324-2.687s.7-3.466-4.222-3.687-9.018-.531-11.08-6.715-2.862-5.105-3.944-7.4.424-11.215,2.834-12.648,6.093,2,8.595.016,5.263,1.6,6.529,2.118,7-.135,7.933,1.5,4.806,5.165,6.8,4.268,3.545-2.418,5.813,1.352,10.09,1.717,12.014,5.17,2.574,8.734,4.228,9.5,4.6,5.686,1.991,9.438,3.464,4.075,3.459,7.729S513.336,903.516,507.919,908.1Z" transform="translate(-446.73 -844.966)" fill="#58736f" style="isolation: isolate"/>
  <path id="Path_132" data-name="Path 132" d="M517.727,920.466l-11.8-.657,10.747-.707c-1.765-2.258-3.735-4.589-5.925-6.935l-16.378-.319,14.792-1.342c-1.9-1.941-3.947-3.878-6.151-5.781l-13.875-1.375s9.012.173,12.386.115c-.469-.388-.937-.777-1.419-1.161q-2.964-2.362-5.575-4.439l-17.415-2.39,15.233.654q-4.4-3.5-7.707-6.121l-16.06-2.858,14.747,1.817c-5.9-4.678-8.813-6.969-8.813-6.969s4.823,3.255,13.989,9.595L478.76,875.57l11.189,17.019-.094-.065c2.107,1.459,4.41,3.057,6.932,4.814.127.089.255.183.383.273l-7.491-18.6,9.2,19.842c2.169,1.623,4.349,3.418,6.492,5.31L501.9,884.826l5.352,21.03h-.005c2.155,1.976,4.253,4.019,6.242,6.05l-.439-20.538,1.918,22.062,0,0c2.787,2.911,5.313,5.738,7.417,8.225l-.692-9.331,2.177,11.114a43.715,43.715,0,0,1,4.723,6.49c1.352,3.084,3.326,7.423,3.326,7.423a3.4,3.4,0,0,1-1.29,1.473c-1.121.858-1.325.8-1.491.685A98.716,98.716,0,0,0,517.727,920.466Z" transform="translate(-465.057 -866.184)" fill="#192a6b"/>
  <path id="Path_133" data-name="Path 133" d="M841.458,1240.623s-12.89,5.761-8.687,16.6,13.146,8.315,22.424,18.744,23.121,17.577,26.575,20.19,11.7,10.988,14.242,12.456,5.02,4.358,6.656,3.511-7.608-12.478-9.7-14.532-7-14.682-10.49-19.938-16.811-29.765-19.7-36-7.374-9.749-10.67-9.658S841.458,1240.623,841.458,1240.623Z" transform="translate(-774.856 -1170.08)" fill="#edd97a" style="isolation: isolate"/>
  <path id="Path_134" data-name="Path 134" d="M832.771,1283.13c4.2,10.839,13.146,8.315,22.424,18.744s23.121,17.577,26.575,20.19c1.917,1.451,5.312,4.677,8.387,7.511.657.037,1.1-.04,1.273-.247,2.059-2.413-10.158-15.114-17.771-19.5s-8.119-9.254-13.626-16.075-16.923-14.431-19.278-19.8,3.694-6.785,5.717-9.613-.708-1.759-.708-1.759-.21-.006-.555,0c-2.094,2.029-3.752,3.951-3.752,3.951S828.569,1272.291,832.771,1283.13Z" transform="translate(-774.856 -1195.988)" fill="#d6ad55" style="isolation: isolate"/>
  <path id="Path_135" data-name="Path 135" d="M930.234,1262.728c-4.3,3-7.451,5.285-2.6,6.511s9.145,1.811,11.129,10.586,17.06,26.653,19.891,26.538-12.73-25.338-15.69-31.361-5.375-12.612-8.812-12.955S930.234,1262.728,930.234,1262.728Z" transform="translate(-854.37 -1195.645)" fill="#fccaa7"/>
  <path id="Path_136" data-name="Path 136" d="M983.232,1251.4c-3.032-1.717,15.3,32.285,16.994,32.116S987.372,1253.745,983.232,1251.4Z" transform="translate(-903.572 -1186.575)" fill="#fce2d2"/>
  <path id="Path_137" data-name="Path 137" d="M884.167,1380.08s5.182-3.58,6.745-4.96,3.554-3.534,4-3.527-2.457,3.36-5.619,5.853S884.167,1380.08,884.167,1380.08Z" transform="translate(-819.395 -1289.107)" fill="#9b5336"/>
  <path id="Path_138" data-name="Path 138" d="M1011.457,1519.53s3.926-2.471,5.07-3.481,2.549-2.647,2.926-2.582-1.64,2.639-3.995,4.419S1011.457,1519.53,1011.457,1519.53Z" transform="translate(-927.926 -1410.071)" fill="#9b5336"/>
  <path id="Path_139" data-name="Path 139" d="M938.334,1251.188a90.368,90.368,0,0,1-5.839,7.225c-1.4,1.231,2.844-1.815,4.6-4.059S938.334,1251.188,938.334,1251.188Z" transform="translate(-860.365 -1186.446)" fill="#9b5336"/>
  <path id="Path_140" data-name="Path 140" d="M1182.7,1600.653a37.145,37.145,0,0,1-3.224,4.918c-.864.763,1.893-.975,2.849-2.514S1182.7,1600.653,1182.7,1600.653Z" transform="translate(-1071.04 -1484.41)" fill="#9b5336"/>
  <path id="Path_141" data-name="Path 141" d="M999.434,1370.981a47.859,47.859,0,0,1,3.371-3.67,14.558,14.558,0,0,0,1.992-1.757c.311-.473.017.879-1.734,2.722S1000.1,1371.685,999.434,1370.981Z" transform="translate(-917.675 -1283.877)" fill="#9b5336"/>
  <path id="Path_142" data-name="Path 142" d="M1119.783,1592.932a47.9,47.9,0,0,1,3.371-3.67,14.51,14.51,0,0,0,1.991-1.757c.311-.473.017.879-1.734,2.722S1120.448,1593.636,1119.783,1592.932Z" transform="translate(-1020.287 -1473.119)" fill="#9b5336"/>
  <path id="Path_143" data-name="Path 143" d="M976.029,1467.716s3.171-2.6,3.937-3.474a4.276,4.276,0,0,1,1.377-1.127,7.337,7.337,0,0,1-2.137,2.89A9.4,9.4,0,0,1,976.029,1467.716Z" transform="translate(-897.719 -1367.141)" fill="#9b5336"/>
  <path id="Path_144" data-name="Path 144" d="M1049.578,1429.662s3.254-3.368,3.887-3.43,1.865-2.193,1.922-1.7-1.474,2.1-2.033,2.589S1049.578,1429.662,1049.578,1429.662Z" transform="translate(-960.429 -1334.184)" fill="#9b5336"/>
  <path id="Path_145" data-name="Path 145" d="M1105.233,1475.291a5.1,5.1,0,0,0-1.759,1.552,13.525,13.525,0,0,1-2,2.21c-.214.263-.474.94.363.2s1.592-1.74,2.2-2.276,1.815-1.614,1.782-1.821S1105.233,1475.291,1105.233,1475.291Z" transform="translate(-1004.497 -1377.351)" fill="#9b5336"/>
  <path id="Path_146" data-name="Path 146" d="M1089.871,1536.264a23.081,23.081,0,0,0-2.149,1.9c-.624.7-1.2,1.509-1.72,2.017s-.474,1.012.559.1,1.056-1.279,1.921-2.043l1-.879s1.442-1.14,1.289-1.369S1089.871,1536.264,1089.871,1536.264Z" transform="translate(-991.207 -1429.222)" fill="#9b5336"/>
  <path id="Path_147" data-name="Path 147" d="M501.7,1056.166s-.665-10.8-4.252-13.115-4.674,1.579-5.829-2.816.551-7.864-2.377-7.745-4.939.643-8.014-1.695-4.478-4.56-6.593-3.789l-2.114.771s-2.675,1.22-3.785-2.721-2.138-7.2-7.537-7.7-4.677-1.351-6.739-1.793-9,2.468-9.706,4.691,2.775,4.555,1.641,6.957,2.291,3.96,2.952,4.887,1.216,5.694,2.714,6.141,5.093,2.914,4.745,4.7-1.287,3.329,2.2,4.451,3.3,7.846,6.462,8.75,7.56.43,8.49,1.625,5.476,2.646,8.02-.175,3.956,2.033,6.915,1.337S499.011,1061.421,501.7,1056.166Z" transform="translate(-444.657 -985.507)" fill="#779994" style="isolation: isolate"/>
  <path id="Path_148" data-name="Path 148" d="M519.062,1062.161l-2.767-9.428,1.463,8.837c-2.163-1-4.424-2.156-6.739-3.485l-3.36-13.2,1.715,12.233c-1.931-1.167-3.888-2.462-5.847-3.887l-3.742-10.976s1.847,7.265,2.438,10.009c-.4-.306-.806-.612-1.209-.929l-4.651-3.674-5.234-13.651,3.414,12.212q-3.668-2.9-6.417-5.082l-5.356-12.464,4.264,11.6c-4.906-3.892-7.313-5.817-7.313-5.817s3.55,3.289,10.42,9.512l-14.82-4.858,15.9,5.838-.07-.064c1.581,1.43,3.311,2.992,5.211,4.7.1.086.2.172.294.258l-16.479-2.545,17.812,3.694c1.725,1.449,3.591,2.875,5.529,4.252l-16.321.852,18.044.351,0,0c2.008,1.371,4.06,2.683,6.081,3.909l-16.716,3.534,18.23-2.625,0,0c2.885,1.705,5.653,3.215,8.066,4.449l-7.688,1.207,9.412-.342a36.38,36.38,0,0,0,6.15,2.6c2.753.511,6.641,1.288,6.641,1.288a2.826,2.826,0,0,0,.949-1.324c.483-1.071.4-1.225.272-1.337A82.1,82.1,0,0,1,519.062,1062.161Z" transform="translate(-470.804 -996.724)" fill="#192a6b"/>
  <path id="Path_149" data-name="Path 149" d="M636.212,874.34s-11.71-.894-14.162-4.824,1.788-5.046-2.962-6.369-8.541.472-8.365-2.7.776-5.349-1.71-8.722-4.876-4.932-4.006-7.214l.87-2.282s1.366-2.883-2.892-4.151-7.78-2.435-8.235-8.3-1.391-5.1-1.837-7.341,2.822-9.728,5.245-10.456,4.9,3.084,7.523,1.892,4.26,2.549,5.255,3.281,6.158,1.41,6.619,3.043,3.08,5.573,5.022,5.223,3.632-1.343,4.794,2.454,8.46,3.707,9.39,7.152.346,8.21,1.627,9.238,2.783,5.984-.318,8.7,2.143,4.325,1.34,7.524S641.957,871.509,636.212,874.34Z" transform="translate(-571.029 -811.885)" fill="#779994" style="isolation: isolate"/>
  <path id="Path_150" data-name="Path 150" d="M642.614,893.75,632.429,890.6l9.565,1.729c-1.052-2.363-2.268-4.834-3.673-7.367L624.049,881.1l13.246,2.057c-1.236-2.114-2.609-4.258-4.123-6.406l-11.849-4.236s7.853,2.12,10.821,2.806c-.325-.442-.651-.885-.989-1.326q-2.08-2.716-3.912-5.105l-14.727-5.9,13.2,3.9q-3.089-4.027-5.411-7.044l-13.438-6.011,12.516,4.813c-4.145-5.385-6.194-8.028-6.194-8.028s3.512,3.9,10.153,11.458L618.3,845.924l6.079,17.347-.068-.077c1.526,1.738,3.193,3.64,5.018,5.729.092.105.184.216.276.323l-2.5-17.921,3.723,19.385c1.544,1.895,3.061,3.943,4.525,6.068l1.186-17.694.092,19.584,0,0c1.456,2.2,2.846,4.449,4.144,6.661l4.1-18.08-3.141,19.737,0,0c1.8,3.158,3.4,6.185,4.7,8.823l1.433-8.322-.522,10.207a39.462,39.462,0,0,1,2.718,6.715c.51,3,1.291,7.226,1.291,7.226a3.065,3.065,0,0,1-1.451,1.008c-1.169.507-1.335.41-1.455.274A89.093,89.093,0,0,0,642.614,893.75Z" transform="translate(-582.956 -840.908)" fill="#192a6b"/>
  <path id="Path_151" data-name="Path 151" d="M814.958,984.647s6.159-4.263,6.243-7.215-2.609-2.2-.42-4.46,4.854-2.49,3.735-4.182-2.15-2.695-1.867-5.352,1.1-4.285-.117-5.261l-1.214-.976s-1.68-1.147.255-3.216,3.5-3.846,1.861-7.221-.875-3.253-1.352-4.633-4.685-4.447-6.254-4.067-1.7,3.275-3.532,3.463-1.524,2.775-1.836,3.5-2.936,2.759-2.665,3.806.1,4.06-1.083,4.492-2.432.43-1.849,2.895-3.464,4.765-2.867,6.961,2.453,4.631,2.078,5.609.394,4.19,2.976,4.687.213,3.071,1.685,4.573S810.884,984.938,814.958,984.647Z" transform="translate(-749.284 -919.441)" fill="#58736f" style="isolation: isolate"/>
  <path id="Path_152" data-name="Path 152" d="M833.357,1008.749l4.592-5.015-4.709,4.031c-.181-1.64-.308-3.392-.35-5.239l6.615-6.718-6.63,5.4c0-1.561.065-3.184.208-4.854l5.159-6.146s-3.641,3.7-5.054,5.028c.037-.348.073-.7.117-1.048.18-1.443.35-2.8.51-4.07l6.209-7.988-6.009,6.4q.4-3.211.711-5.62l5.463-7.636-5.341,6.679c.548-4.3.825-6.414.825-6.414s-.676,3.28-1.9,9.577l-2.431-10.516,2.238,11.507.013-.064c-.281,1.448-.586,3.032-.918,4.77-.017.088-.031.178-.048.267l-4.4-10.67,4.192,11.871c-.24,1.54-.416,3.156-.537,4.8l-6.349-9.36,6.255,10.811v0c-.093,1.68-.135,3.365-.137,5l-8.079-8.633,8.084,9.854v0c.023,2.319.121,4.5.254,6.37l-3.468-4.12,3.573,5.451a25.152,25.152,0,0,0,.666,4.572c.684,1.813,1.616,4.394,1.616,4.394a1.954,1.954,0,0,0,1.124.088c.807-.1.867-.2.889-.318A56.819,56.819,0,0,1,833.357,1008.749Z" transform="translate(-767.735 -950.613)" fill="#192a6b"/>
</svg>
