<svg xmlns="http://www.w3.org/2000/svg" width="332.474" height="156.73" viewBox="0 0 332.474 156.73">
  <g id="help-deco-after" transform="translate(-73.224 -1240.5)">
    <g id="Group_406" data-name="Group 406" transform="translate(73.224 1240.5)">
      <path id="Path_260" data-name="Path 260" d="M369.479,1184.76l.589,1.4s18.325-8.112,18.792-8.728,9.938-17.81,9.938-17.81,1.534-3.863.957-6.66-1.788-3.086-2.337-2.493-.161,4.279,0,5.519-9.163,15.177-9.768,16.487-14.2,6.384-14.2,6.384Z" transform="translate(-344.672 -1122.18)" fill="#f7c0af" fill-rule="evenodd"/>
      <path id="Path_261" data-name="Path 261" d="M387.373,1195.236l-11.459,4.965s-7.216,5.021-6.656,7.649c.455,2.134,1.625,2.4,3.533,1.345l15.114-7.519c2.821-.172,11.628-19.325,11.628-19.325l-4.636-.754S389.355,1189.151,387.373,1195.236Z" transform="translate(-344.484 -1145.584)" fill="#8472b5"/>
      <path id="Path_262" data-name="Path 262" d="M383.132,1382.951s13.39,27,15.987,37.476,3.854,26.946,3.854,26.946l-2.955-.088s-5.575-17.88-9.533-27.195-10.953-14.987-16.017-23.735-3.717-7.679-3.717-7.679Z" transform="translate(-345.499 -1295.737)" fill="#a1c3ff"/>
      <path id="Path_263" data-name="Path 263" d="M474.464,1598.323l5.432-1.811,1.164,11.321.221.212a39.216,39.216,0,0,1,4.625-.251,1.975,1.975,0,0,1,.132,1.011c-.057.139-6.394,2.134-6.878,2.167-.431.031-.839-1.933-.924-2.364Z" transform="translate(-422.961 -1454.994)" fill="#9494bf"/>
      <path id="Path_264" data-name="Path 264" d="M332.363,1201.593s-1.4,2.926-.227,5.224a25.182,25.182,0,0,0,3.357,4.658l-2.293-10.054Z" transform="translate(-316.474 -1160.367)" fill="#705244"/>
      <path id="Path_265" data-name="Path 265" d="M326.394,1378.863s-6.033,29.525-10.427,39.387-13.524,23.623-13.524,23.623l-2.277-1.885s6.593-17.531,9.2-27.31.573-18.554,1.956-28.567,1.789-8.342,1.789-8.342Z" transform="translate(-292.984 -1290.303)" fill="#a1c3ff"/>
      <rect id="Rectangle_140" data-name="Rectangle 140" width="4.336" height="5.355" transform="translate(26.947 57.514) rotate(177.713)" fill="#f7c0af"/>
      <path id="Path_266" data-name="Path 266" d="M328.9,1256.436c.418-.686,6.235-1.3,11.372-1.571,2.334-.123,5.655.011,5.655.011.884,3.072,2.233,15.517,2.233,15.517l.222,9.086-14.333,1.005-1.18-3.811S328.29,1257.435,328.9,1256.436Z" transform="translate(-314.368 -1200.183)" fill="#f7c0af" fill-rule="evenodd"/>
      <g id="Group_373" data-name="Group 373" transform="translate(15.815 36.097)">
        <path id="Path_267" data-name="Path 267" d="M336.136,1193.767s.866-2.336,4.771-3.26c1.286-.3,4.539-.575,5.359.649,0,0,1.093,2.324,1.424,3.255l.117-.038s3.2,7.571-3.206,9.5c-4.36,1.313-5.972-2.041-6.8-4.251C337.185,1198.928,336.136,1193.767,336.136,1193.767Z" transform="translate(-335.623 -1188.133)" fill="#f7c0af" fill-rule="evenodd"/>
        <g id="Group_371" data-name="Group 371" transform="translate(8.916 6.499)">
          <path id="Path_268" data-name="Path 268" d="M369.814,1207.759a.313.313,0,0,1-.278.346.317.317,0,0,1-.353-.273.313.313,0,0,1,.278-.346A.317.317,0,0,1,369.814,1207.759Z" transform="translate(-369.181 -1207.483)" fill="#412b25"/>
          <path id="Path_269" data-name="Path 269" d="M370.923,1208.307c0,.024-.021.047-.053.05s-.061-.013-.064-.037.021-.047.053-.05A.053.053,0,0,1,370.923,1208.307Z" transform="translate(-370.393 -1208.07)" fill="#fff"/>
          <path id="Path_270" data-name="Path 270" d="M371.355,1208.593c0,.012-.01.023-.026.024a.026.026,0,0,1-.031-.018c0-.012.01-.023.026-.024A.026.026,0,0,1,371.355,1208.593Z" transform="translate(-370.759 -1208.297)" fill="#fff"/>
        </g>
        <g id="Group_372" data-name="Group 372" transform="translate(4.29 7.881)">
          <path id="Path_271" data-name="Path 271" d="M351.622,1213.194a.312.312,0,0,1-.278.345.317.317,0,0,1-.353-.273.312.312,0,0,1,.278-.345A.317.317,0,0,1,351.622,1213.194Z" transform="translate(-350.989 -1212.918)" fill="#412b25"/>
          <path id="Path_272" data-name="Path 272" d="M352.731,1213.741c0,.025-.021.047-.053.05a.053.053,0,0,1-.064-.036c0-.025.021-.047.053-.05A.054.054,0,0,1,352.731,1213.741Z" transform="translate(-352.201 -1213.505)" fill="#fff"/>
          <path id="Path_273" data-name="Path 273" d="M353.163,1214.027c0,.012-.011.023-.026.025a.026.026,0,0,1-.031-.018c0-.012.01-.023.026-.024A.026.026,0,0,1,353.163,1214.027Z" transform="translate(-352.567 -1213.732)" fill="#fff"/>
        </g>
        <path id="Path_274" data-name="Path 274" d="M345.464,1205.431s.135.45.022.63-1.174.032-1.621.295-.418.426-.78.594a3.212,3.212,0,0,1-.586.219,6.389,6.389,0,0,1,1.82-1.655,1.75,1.75,0,0,1,1.145-.083Z" transform="translate(-340.368 -1199.413)" fill="#705244" fill-rule="evenodd"/>
        <path id="Path_275" data-name="Path 275" d="M362.768,1201.211s.121.4.31.478,1.011-.587,1.526-.625.576.1.97.034a3.559,3.559,0,0,0,.611-.144,6.737,6.737,0,0,0-2.4-.277,1.914,1.914,0,0,0-1.014.535Z" transform="translate(-355.483 -1195.874)" fill="#705244" fill-rule="evenodd"/>
        <path id="Path_276" data-name="Path 276" d="M360.047,1208.977a2.917,2.917,0,0,0,.034.6,3.417,3.417,0,0,0,.145.609,2.218,2.218,0,0,0,.339.656,2.738,2.738,0,0,0,.249.277,2.233,2.233,0,0,0,.278.228c.093.068.188.123.267.175s.122.093.112.125a.337.337,0,0,1-.112.145c-.052.043-.1.08-.144.109-.084.058-.136.088-.136.088a1.1,1.1,0,0,0,.161-.033,1.113,1.113,0,0,0,.18-.066.4.4,0,0,0,.215-.2.243.243,0,0,0-.022-.211.639.639,0,0,0-.119-.137l-.245-.208c-.082-.069-.159-.146-.236-.224a2.529,2.529,0,0,1-.217-.256,4.251,4.251,0,0,1-.551-1.121Z" transform="translate(-353.45 -1202.098)" fill="#a17f75"/>
        <path id="Path_277" data-name="Path 277" d="M345.18,1182.331c-.409-.442-.446-.549-.636-.187s-1.061,1.164-2.865,1c-1.55-.143-4.029.36-5.231,2a8.491,8.491,0,0,0-1.44.671,1.3,1.3,0,0,0-.125.073l0,0h0a2.133,2.133,0,0,0-.763,1.508,4.819,4.819,0,0,1,.388,1.57,18.352,18.352,0,0,0,1.44,4.184s.031-.61.008-1.083a9.438,9.438,0,0,0-.32-2.5c-.305-.942-.464-1.712.29-2.442a1.29,1.29,0,0,1,.848-.307h0s4.588.3,6.922-.682a3.166,3.166,0,0,0,1.078-.722,14.367,14.367,0,0,1,1.813,4.079c.292-.015-.469-2.72-.782-3.768a2.987,2.987,0,0,0-.548-1.019A2.56,2.56,0,0,0,345.18,1182.331Z" transform="translate(-334.117 -1181.926)" fill="#705244" fill-rule="evenodd"/>
        <path id="Path_278" data-name="Path 278" d="M351.358,1211.228c-.245-1.031-.583-2.15-.885-3.078a2.467,2.467,0,0,0-.195-.176,9.191,9.191,0,0,1,.122,4.143,2.225,2.225,0,0,0-.164-.315s-2.036.412-3.038.669a39.282,39.282,0,0,0-5.3,1.821.592.592,0,0,0-.2.224,10.945,10.945,0,0,1-2.331-3.442,4,4,0,0,0-.068.592,28.764,28.764,0,0,0,1.772,4.408c.012.03.679,1.737.8,2.026s2.287,1.046,5.732-.015,3.958-1.449,4.013-1.781c.6-3.562-.262-5.077-.262-5.077Z" transform="translate(-337.987 -1201.35)" fill="#705244" fill-rule="evenodd"/>
        <path id="Path_279" data-name="Path 279" d="M360.588,1230.687a2.332,2.332,0,0,0,1.872.514,2.374,2.374,0,0,0,1.454-1.446Z" transform="translate(-353.857 -1217.593)" fill="#fff"/>
        <path id="Path_280" data-name="Path 280" d="M343.527,1219.264s.039,1.143,1.326.866,1.64-1.107,2.506-1.708a70.393,70.393,0,0,1,2.753-.822c1.054.027,1.8.527,3.032.053a.961.961,0,0,0,.634-1.45s1,.694-.079,2.082a3.62,3.62,0,0,1-2.87,1.394,4.3,4.3,0,0,1-1.594,0,4.3,4.3,0,0,1-1.335.871,3.617,3.617,0,0,1-3.164.408C343.07,1220.394,343.527,1219.264,343.527,1219.264Z" transform="translate(-341.091 -1207.487)" fill="#705244" fill-rule="evenodd"/>
      </g>
      <path id="Path_281" data-name="Path 281" d="M336.331,1254.416a1.674,1.674,0,0,1-.338,2.308c-1.275.887-5.526-1.909-5.526-1.909s-5.98.48-7.456.868-.534,4.293.133,8.383,6.734,24.862,7.163,25.225,7.04-3.183,8.714-3.517,6.3.236,6.729-.2-3.843-30.916-4.56-31.194S336.331,1254.416,336.331,1254.416Z" transform="translate(-309.436 -1199.77)" fill="#8472b5"/>
      <path id="Path_282" data-name="Path 282" d="M337.214,1214.762s-.992-.854-1.216.186,2.075,2.7,2.075,2.7Z" transform="translate(-319.693 -1170.07)" fill="#f7c0af" fill-rule="evenodd"/>
      <path id="Path_283" data-name="Path 283" d="M355.764,1297.852a46.5,46.5,0,0,1-8.243,1.97c-3.06.239-6.707.287-6.707.287l-2.564,8.681s2.914,11.179,3.878,13.252,8.759,4.424,12.088,1.221,4.874-3.063,4.874-3.063Z" transform="translate(-321.384 -1232.278)" fill="#ededf4"/>
      <path id="Path_284" data-name="Path 284" d="M384.273,1254.351s2.574,7.222,2.8,9.705a31.34,31.34,0,0,1,.179,3.676l2.3-.325a60.026,60.026,0,0,0-1.515-9.036,20.672,20.672,0,0,0-1.328-4.061Z" transform="translate(-355.704 -1199.808)" fill="#ededf4"/>
      <path id="Path_285" data-name="Path 285" d="M315.767,1453.773l-.748-.293c2.37-6.049,8.562-21.995,8.757-23.115.1-.562.143-2.741.2-5.263.074-3.6.167-8.081.46-10.766.5-4.57,1.471-10.549,1.489-10.649l.791.142c-.018.1-.987,6.051-1.481,10.594-.289,2.65-.381,7.111-.456,10.7-.055,2.661-.1,4.763-.207,5.385C324.319,1431.932,316.117,1452.882,315.767,1453.773Z" transform="translate(-304.06 -1311.201)" fill="#98bdf4"/>
      <path id="Path_286" data-name="Path 286" d="M298.5,1595.839l5.4,1.91-6.04,9.646.044.3a39.23,39.23,0,0,1,3.8,2.645,1.977,1.977,0,0,1-.517.878c-.131.075-6.355-2.248-6.758-2.518-.358-.241.527-2.041.725-2.432Z" transform="translate(-288.64 -1454.492)" fill="#9494bf"/>
      <path id="Path_287" data-name="Path 287" d="M473.938,1155.429l-3.686-.734s-1.44-5.273-.858-5.332.993,1.325.993,1.325-.2-5.6,2.389-4.758S477.6,1150.181,473.938,1155.429Z" transform="translate(-419.077 -1118.921)" fill="#d6ad55" fill-rule="evenodd" style="isolation: isolate"/>
      <path id="Path_288" data-name="Path 288" d="M340.61,1072.19c6.917-5.635,16.532-25.236,16.532-25.236a.6.6,0,0,0-.709-.42c-.251.017-11.044,13.449-12.245,14.942s-1.681.56-1.621.062,12.128-16.469,12.237-16.859-.055-.505-.4-.5-12.2,14.032-13.171,15.026-1.553.561-1.553.561-.548-.476.215-1.637,11.935-15.743,11.864-16.078-.218-.471-.576-.281-13.379,15.394-13.854,15.558-1.487-.1-.286-1.6,12.015-14.908,11.978-15.156a.6.6,0,0,0-.562-.6s-17.092,13.583-21.118,21.544-1.98,12.888-3.181,14.38-20.738,26.616-26.71,31.235-24.247,21.469-25.332,26.129a7.374,7.374,0,0,0,10.209,8.216c4.319-2.057,16.873-23.511,20.109-30.332s23.6-31.278,24.8-32.77S333.693,1077.826,340.61,1072.19Z" transform="translate(-271.921 -1039.97)" fill="#ffaf78"/>
      <path id="Path_289" data-name="Path 289" d="M295.771,1261.56l-2.365.44s-10.587,20.789-10.237,21.656,3.194,1.735,6.987,1,14.332-3.036,14.332-3.036,5.865,1.065,6.907-.543-6.69-1.918-6.69-1.918-16.708,3-16.779,2.5,8.353-12.886,9.306-14.44S295.771,1261.56,295.771,1261.56Z" transform="translate(-280.302 -1205.214)" fill="#f7c0af" fill-rule="evenodd"/>
      <path id="Path_290" data-name="Path 290" d="M279.325,1282.621a.535.535,0,0,1-.077-.521h0l0-.008,11.075-22.181s.971-.67,3.521.18a3.268,3.268,0,0,1,1.6,4.991l-9.063,14.03c6.355-1.619,14.633-2.907,14.633-2.907l-.541,4.666S282.756,1287.47,279.325,1282.621Z" transform="translate(-277.359 -1203.796)" fill="#8472b5"/>
      <path id="Path_291" data-name="Path 291" d="M365.963,1325.4l.037-3.758s4.914-2.394,5.081-1.833-1.119,1.222-1.119,1.222,5.471-1.232,5.119,1.464S371.8,1328.024,365.963,1325.4Z" transform="translate(-342.05 -1248.59)" fill="#d6ad55" fill-rule="evenodd" style="isolation: isolate"/>
      <path id="Path_292" data-name="Path 292" d="M336.93,1257.2a45.742,45.742,0,0,1,3.336,8.479,38.466,38.466,0,0,1,.8,4.317l-2.493.414s-.909-3.752-1.859-6.822a23.271,23.271,0,0,0-3.2-6.05Z" transform="translate(-317.859 -1201.961)" fill="#ededf4"/>
      <path id="Path_293" data-name="Path 293" d="M316.2,1134.4s4.052-4.364,3.365-9.515-3.4-6.052-6.719-4.267-4.375,6.848-6.6,8.179-7.45,1.785-6.921,5.812,5.243,4.515,7.251,3.5S315.352,1135.467,316.2,1134.4Z" transform="translate(-292.331 -1099.483)" fill="#e4eaf9"/>
      <path id="Path_294" data-name="Path 294" d="M332.21,1178.458l-1.054-3.861a11.1,11.1,0,0,1,5.376-3.252c3.09-.628,4.1-.356,4.1-.356l1.546,4.357S334.478,1176.643,332.21,1178.458Z" transform="translate(-316.094 -1137.629)" fill="#c7d1e5"/>
      <path id="Path_295" data-name="Path 295" d="M361.78,1377.967h3.811s12.615,23.6,12.2,25.022-14.459,6.856-22.408,6.561-7.531,1.655-7.949-.294,1.141-28.363,1.141-28.363Z" transform="translate(-328.18 -1292.02)" fill="#ededf4"/>
    </g>
    <g id="Group_407" data-name="Group 407" transform="translate(265.579 1259.897)">
      <path id="Path_216" data-name="Path 216" d="M841.386,543.162s3.9-1.415,5.586.548,2.237,1.919,1.611,3.462a14.144,14.144,0,0,0-.591,4.291s4.6-3.323,5.8-5.806a17.039,17.039,0,0,0,1.428-3.765s-3.5,1.4-4.683.752-5.538-3.233-8.175-3.083-3.434.918-.972,3.6Z" transform="translate(-839.903 -539.068)" fill="#192a6b" fill-rule="evenodd"/>
      <path id="Path_217" data-name="Path 217" d="M873.241,545.8s-3.982,2.488-5.364,4.961-.054,5.4,3.75,8.482,11.284,2.6,21.127,8.285,9.134,9.171,10.874,9.619,4.67-2.366,4.2-6.537-2.129-6.081-4.807-9.719a25.136,25.136,0,0,0-4.454-4.956s-3.84-9.714-10.215-14.831-9.9-4.817-11.122-1.512a21.142,21.142,0,0,1-3.989,6.207Z" transform="translate(-861.76 -537.17)" fill="#e58faa" fill-rule="evenodd"/>
      <path id="Path_218" data-name="Path 218" d="M868.107,602.085c-.082.125-.159.251-.229.376-1.381,2.473-.054,5.4,3.75,8.482s11.284,2.6,21.127,8.285c.733.423,1.406.833,2.027,1.232,1.613-.166,1.638-1.342-2.4-4.51,0,0-1.671.768-8.432-2.432s-8.595-3.784-11.755-7.034c-1.717-1.766-3.141-3.334-4.084-4.4Z" transform="translate(-861.76 -588.874)" fill="#f5b9c9" fill-rule="evenodd"/>
      <path id="Path_219" data-name="Path 219" d="M947.07,572.556a7.621,7.621,0,0,0,.025-1.948c-.47-4.17-2.129-6.081-4.808-9.719a25.131,25.131,0,0,0-4.454-4.955s-3.84-9.714-10.215-14.831c-6.135-4.924-9.631-4.831-10.974-1.872a22.829,22.829,0,0,1,10.2,4.937c5.259,4.613,4.966,8.153,4.966,8.153s.864.058,7.81,6.764c6.458,6.236,6.76,11.937,7.452,13.472Z" transform="translate(-901.026 -537.172)" fill="#d1829f" fill-rule="evenodd"/>
      <path id="Path_220" data-name="Path 220" d="M895.754,569.763l-.144.092c1.242.777,4.364,2.762,9.115,5.992a53.6,53.6,0,0,1,10.635,9.766,28.552,28.552,0,0,0-7.82-10.593c-3.969-3.27-7.9-6.313-9.793-7.759a22.7,22.7,0,0,1-1.994,2.5Z" transform="translate(-884.273 -561.137)" fill="#d1829f" fill-rule="evenodd"/>
    </g>
    <g id="Group_408" data-name="Group 408" transform="translate(273.157 1290.25)">
      <path id="Path_466" data-name="Path 466" d="M318.668,1637.047l.826-.727s2.839.964,3.869,2.775a22.568,22.568,0,0,1,1.718,5.218Z" transform="translate(-230.204 -1624.043)" fill="#a6804f" fill-rule="evenodd"/>
      <g id="Group_393" data-name="Group 393" transform="translate(59.357 28.155)">
        <path id="Path_467" data-name="Path 467" d="M353.605,1719.464s-4.748,7.525-12.092,11.243a51.785,51.785,0,0,1-14.816,4.548s-3.837,2.293-5.1,1.969-2.789-1.955-1.643-2.76,6.239-1.279,6.239-1.279,10.687-3.225,13.073-4.694,11.607-13.167,12.815-12.5S353.605,1719.464,353.605,1719.464Z" transform="translate(-318.264 -1715.632)" fill="#f7c0af"/>
        <path id="Path_468" data-name="Path 468" d="M459.523,1798.1l-1.082-3.141s-4.789-.634-4.773-.117,1.279.712,1.279.712-4.932.5-3.883,2.658S455.362,1801.928,459.523,1798.1Z" transform="translate(-450.919 -1778.296)" fill="#d6ad55" fill-rule="evenodd" style="isolation: isolate"/>
        <path id="Path_469" data-name="Path 469" d="M334.1,1720.2s-4.636,5.326-7.272,7.034-5.272,3.232-5.272,3.232l-1.727-2.984s10.723-12.993,13.335-13.138S334.1,1720.2,334.1,1720.2Z" transform="translate(-299.34 -1714.336)" fill="#9494bf"/>
      </g>
      <path id="Path_470" data-name="Path 470" d="M325.153,1646.268c.823-.6,3.045-1.764,3.967-1.1,0,0,.956.941,1.574,1.607.018-.224.122-.564.621-.381.7.257.937,1.717.639,1.959.2.261.375.5.478.663a4.425,4.425,0,0,1-.918,6.074c-2.711,2.259-5.054.611-6.227-.963a45.562,45.562,0,0,1-2.59-4.038S322.654,1648.1,325.153,1646.268Z" transform="translate(-239.185 -1630.933)" fill="#f7c0af" fill-rule="evenodd"/>
      <path id="Path_471" data-name="Path 471" d="M218.818,1690.526l3-4.012-2.462-2.649,2.688-2.453,2.722,2.929,6.3-2.81s11.556,7.828,13.124,28.011c.249,3.205-12.785-1.367-12.785-1.367l-4.965-6.739Z" transform="translate(-128.991 -1659.958)" fill="#f7c0af"/>
      <g id="Group_394" data-name="Group 394" transform="translate(85.238 20.671)">
        <path id="Path_472" data-name="Path 472" d="M363.7,1678a.251.251,0,1,0-.025-.348A.247.247,0,0,0,363.7,1678Z" transform="translate(-363.619 -1677.563)" fill="#412b25"/>
        <path id="Path_473" data-name="Path 473" d="M365.186,1679.009a.049.049,0,1,0,0-.057A.041.041,0,0,0,365.186,1679.009Z" transform="translate(-365.082 -1678.653)" fill="#fff"/>
        <path id="Path_474" data-name="Path 474" d="M365.308,1679.5a.024.024,0,1,0,0-.028A.021.021,0,0,0,365.308,1679.5Z" transform="translate(-365.193 -1679.073)" fill="#fff"/>
      </g>
      <g id="Group_395" data-name="Group 395" transform="translate(88.15 18.205)">
        <path id="Path_475" data-name="Path 475" d="M349.393,1665.888a.251.251,0,1,0-.025-.348A.247.247,0,0,0,349.393,1665.888Z" transform="translate(-349.308 -1665.448)" fill="#412b25"/>
        <path id="Path_476" data-name="Path 476" d="M350.875,1666.894a.049.049,0,1,0,0-.058A.042.042,0,0,0,350.875,1666.894Z" transform="translate(-350.771 -1666.538)" fill="#fff"/>
        <path id="Path_477" data-name="Path 477" d="M351,1667.381a.024.024,0,0,0,.029-.035.02.02,0,0,0-.027.007A.02.02,0,0,0,351,1667.381Z" transform="translate(-350.882 -1666.958)" fill="#fff"/>
      </g>
      <path id="Path_478" data-name="Path 478" d="M343.128,1656.492s.29.342.506.334.738-1.006,1.225-1.264.6-.151.963-.382a3.862,3.862,0,0,0,.535-.4,7.187,7.187,0,0,0-2.467.758,2.04,2.04,0,0,0-.763.955Z" transform="translate(-256.458 -1638.745)" fill="#a6804f" fill-rule="evenodd"/>
      <path id="Path_479" data-name="Path 479" d="M352.5,1670.256a2.21,2.21,0,0,1,.34.324,2.587,2.587,0,0,1,.286.393,1.7,1.7,0,0,1,.213.533,2.154,2.154,0,0,1,.035.288,1.742,1.742,0,0,1-.009.28c-.008.089-.025.174-.034.247s-.008.12.016.13a.265.265,0,0,0,.144.006c.053-.009.1-.02.139-.031.078-.021.123-.037.123-.037a.865.865,0,0,1-.1.079.826.826,0,0,1-.133.075.318.318,0,0,1-.227.03.185.185,0,0,1-.113-.12.494.494,0,0,1-.02-.14c0-.08,0-.164,0-.251s0-.168-.011-.254a1.94,1.94,0,0,0-.039-.259,3.241,3.241,0,0,0-.379-.893Z" transform="translate(-265.759 -1651.073)" fill="#a17f75"/>
      <path id="Path_480" data-name="Path 480" d="M334.545,1636.98c.45,1.1,3.267,3.761,3.638,2.751.739-2.013,1.664-3.07,3.845-3.283,1.152-.113,1.321-1.247,1.413-1.27.791-.2.9.021,1.339.636a3.82,3.82,0,0,0,1.111.976c.283.228.3-.095.3-.095a4.465,4.465,0,0,0-1.132-1.532,3.618,3.618,0,0,1-.795-.951h0a1.577,1.577,0,0,0-.512-1.36,2.635,2.635,0,0,0-1.094-.778s.4.938.313,1.027-.832-.9-1.631-.776-.623.13-.623.13.874.629.825.792-1.506-.34-1.887-.217.258.525-.638.267a1.757,1.757,0,0,0-1.928,1.167c-.184.582.517,1.025-.529,1.108a1.871,1.871,0,0,1-1.46-.337,3.933,3.933,0,0,0,.691,1.071c.391.375.552.3.494.4s-.679-.03-1.086-.254-.476-.259-.476-.259a3.83,3.83,0,0,0,.631,1.091c.394.435.58.611.448.621s-.372-.022-1.256-.921Z" transform="translate(-254.542 -1620.661)" fill="#a6804f" fill-rule="evenodd"/>
      <path id="Path_481" data-name="Path 481" d="M365.1,1670.065l-.28-.468a1.937,1.937,0,0,1,.289-.355,2.023,2.023,0,0,1,1.058-.589s.287.339.244.549C366.375,1669.391,365.518,1669.691,365.1,1670.065Z" transform="translate(-280.935 -1649.795)" fill="#a6804f" fill-rule="evenodd"/>
      <path id="Path_482" data-name="Path 482" d="M318.945,1662a5.34,5.34,0,0,1,.914-1.213,17.46,17.46,0,0,1,2.4-1.509,13.129,13.129,0,0,0,1.4-2.26l-.548-2.068.112-.172,1.271,1.494h0a5.168,5.168,0,0,1,2.141,3.965c.03,2.645-2.692,5.313-5.159,5.7s-3.7-3.868-3.7-3.868Z" transform="translate(-231.579 -1638.745)" fill="#a6804f" fill-rule="evenodd"/>
      <path id="Path_483" data-name="Path 483" d="M343.548,1682.863a2.026,2.026,0,0,1-.637,1.5,2.12,2.12,0,0,1-1.691.381Z" transform="translate(-253.262 -1661.113)" fill="#fff"/>
      <path id="Path_484" data-name="Path 484" d="M264.07,1787.514s-19.207,3.322-20.727,5.928,5.3,25.674,5.3,25.674l2.962.107s-1.317-20.69-1.2-21.157,17.58.568,20.879-.6S269.316,1788.054,264.07,1787.514Z" transform="translate(-162.053 -1744.466)" fill="#a1c3ff"/>
      <path id="Path_485" data-name="Path 485" d="M346.9,1926.487l-4.575.27,2.5,8.758-.1.223a31.39,31.39,0,0,0-3.511,1.189,1.583,1.583,0,0,0,.2.79c.084.086,5.386-.317,5.755-.436.329-.105.048-1.686-.017-2.031Z" transform="translate(-257.044 -1855.155)" fill="#9494bf"/>
      <path id="Path_486" data-name="Path 486" d="M171.878,1813.884s-6.754,18.285-5.262,20.907,24.87,8.288,24.87,8.288l1.577-2.509s-18.562-9.232-18.908-9.568,9.3-14.927,9.945-18.368S174.975,1809.616,171.878,1813.884Z" transform="translate(-67.196 -1762.641)" fill="#a1c3ff"/>
      <path id="Path_487" data-name="Path 487" d="M135.668,1949.138l-2.06,4.094,8.833,2.225.142.2a31.415,31.415,0,0,0-.731,3.634,1.586,1.586,0,0,0,.786.221c.117-.029,2.426-4.819,2.508-5.2.074-.337-1.435-.887-1.766-1Z" transform="translate(-12.608 -1873.196)" fill="#9494bf"/>
      <path id="Path_488" data-name="Path 488" d="M215.3,1684.239s-.786,4.62-1.26,4.87-1.919-2.594-1.919-2.594-3.139,3.927-3.272,4.068,10.012,14.353,10.346,15.146,5.141,4.389,8.526,4.953,8.8-.892,8.8-.892-1.025-11.3-6.821-19.486-7.272-8.9-8.415-8.892S215.3,1684.239,215.3,1684.239Z" transform="translate(-119.296 -1659.958)" fill="#9494bf"/>
      <path id="Path_489" data-name="Path 489" d="M319.58,1704.892l2.22,2.918-1.094,2.6-1.4-4.347Z" transform="translate(-227.053 -1678.659)" fill="#8484af"/>
      <path id="Path_490" data-name="Path 490" d="M305.081,1691.8l-1.142,5.582,3.128.676-1.413-5.8Z" transform="translate(-209.191 -1668.231)" fill="#8484af"/>
      <path id="Path_491" data-name="Path 491" d="M272.421,1723.076a41.216,41.216,0,0,0,3.916,9.326c2.827,4.965,5.085,8.774,5.085,8.774S272.688,1725.2,272.421,1723.076Z" transform="translate(-177.132 -1693.143)" fill="#8484af"/>
      <path id="Path_492" data-name="Path 492" d="M200.2,1834.176s-9.585,15.474-9.028,16.589,15.848,7.438,15.848,7.438-16.57-5.586-16.711-7.068S200.2,1834.176,200.2,1834.176Z" transform="translate(-86.023 -1781.631)" fill="#98bdf4"/>
      <path id="Path_493" data-name="Path 493" d="M237.383,1712.661s-6.651-2.777-8.631-5.441a113.157,113.157,0,0,1-6.52-12.8c-1-2.738-1.729-9.6-1.729-9.6l-1.617.809s1.006,8.577,1.061,8.793a5.037,5.037,0,0,1-2.229,2.5c-1.17.5-3.182-.5-3.182-.5l-2.944-5.051-1.152,1.436,2.852,5.289s3.245,5.666,5.061,8.4,7.277,7.476,11.011,7.81S237.383,1712.661,237.383,1712.661Z" transform="translate(-120.479 -1662.669)" fill="#ededf4"/>
      <path id="Path_494" data-name="Path 494" d="M221.074,1789.915s-11.8,2.428-12.2,2.852,4.471,3.779,4.476,8.377,2.029,9.864,7.913,11.285,7.753,1.839,12.377.5,6.651-.836,6.651-.836l.324-15.884s-8.62-.006-11.713-1.8S221.074,1789.915,221.074,1789.915Z" transform="translate(-123.388 -1746.378)" fill="#ededf4" fill-rule="evenodd"/>
      <path id="Path_495" data-name="Path 495" d="M216.372,1770.246l8.12-2.7.965,3.077-7.424,2.49Z" transform="translate(-109.761 -1728.559)" fill="#ededf4" fill-rule="evenodd"/>
      <path id="Path_496" data-name="Path 496" d="M319,1588.192s-5.078-1.6-6.818-5.91-.029-6.207,3.338-6.284,6.426,3.391,8.739,3.445,6.58-1.9,7.947,1.461-2.082,5.825-4.09,5.925S320.131,1588.649,319,1588.192Z" transform="translate(-236.181 -1575.997)" fill="#e4eaf9"/>
      <path id="Path_497" data-name="Path 497" d="M345.324,1626.138l-.886-3.467a9.918,9.918,0,0,0-5.616-.153,9.627,9.627,0,0,0-3.345,1.534l.722,4.07S342.76,1625.729,345.324,1626.138Z" transform="translate(-253.867 -1612.768)" fill="#c7d1e5"/>
      <g id="Group_396" data-name="Group 396" transform="translate(0 20.971)">
        <path id="Path_498" data-name="Path 498" d="M513.521,1705.34s1.211,5.839-2.834,5.332-5.208,3.846-5.208,3.846l-6.174,14.175s-3.937-1.219-22.942-8.039a103.025,103.025,0,0,1-31.96-18.831s4.336-7.238,7.212-12.031,5.5-11.313,7.072-10.713,5.244,3.657,17.814,10.193,36.888,15.225,37.02,16.069Zm-51.9-18.127a2.458,2.458,0,1,1-1.2-3.284,2.474,2.474,0,0,1,1.2,3.284Z" transform="translate(-444.403 -1679.039)" fill="#cad8fc" fill-rule="evenodd"/>
        <path id="Path_499" data-name="Path 499" d="M304.42,1828.682c.737.2,1.9-.9,2.655-2.561s.829-3.262.192-3.684l.01-.021L271.9,1806.287c-.728-.332-1.96.807-2.752,2.543s-.843,3.413-.115,3.745L304.41,1828.7Z" transform="translate(-202.615 -1780.344)" fill="#192a6b"/>
        <path id="Path_500" data-name="Path 500" d="M423.405,1827.869a1.393,1.393,0,1,0-1.857.716,1.407,1.407,0,0,0,1.857-.716Z" transform="translate(-349.433 -1795.99)" fill="#779994" fill-rule="evenodd" style="isolation: isolate"/>
        <path id="Path_501" data-name="Path 501" d="M511.931,1733.132a103.025,103.025,0,0,0,31.96,18.831c19.006,6.821,22.942,8.039,22.942,8.039l.638-1.464c-8.319-2.711-25.907-9.535-35.261-21.2a97.4,97.4,0,0,1-11.516-18.987c-.505.94-1.024,1.876-1.551,2.754C516.267,1725.893,511.931,1733.132,511.931,1733.132Z" transform="translate(-511.926 -1710.346)" fill="#e4eaf9"/>
        <rect id="Rectangle_145" data-name="Rectangle 145" width="8.061" height="0.864" transform="translate(102.559 40.469) rotate(114.505)" fill="#779994" style="isolation: isolate"/>
        <rect id="Rectangle_146" data-name="Rectangle 146" width="8.061" height="0.864" transform="translate(100.733 39.637) rotate(114.505)" fill="#779994" style="isolation: isolate"/>
      </g>
      <path id="Path_502" data-name="Path 502" d="M316.978,1712.469s-4.851,9.428-12.4,13.256a108.641,108.641,0,0,1-15.363,6.209s-3.958,2.821-5.284,2.576-2.944-1.889-1.764-2.861,6.482-1.923,6.482-1.923,10.969-4.584,13.543-6.219c3.8-2.41,11.753-14.682,13.025-14.06S316.978,1712.469,316.978,1712.469Z" transform="translate(-214.588 -1682.271)" fill="#f7c0af"/>
      <path id="Path_503" data-name="Path 503" d="M268.928,1706.693l1.632,3.385s9.473-3.967,12.741-8.9a77.626,77.626,0,0,0,5-8.567s1.8-3.884-1.359-5.469c-1.584-.8-9.054,11.315-11,13.43A87.027,87.027,0,0,1,268.928,1706.693Z" transform="translate(-183.808 -1664.495)" fill="#9494bf"/>
      <path id="Path_504" data-name="Path 504" d="M423.645,1809.784l-1.213-3.093s-4.812-.432-4.773.084,1.308.657,1.308.657-4.906.7-3.768,2.819S419.649,1813.784,423.645,1809.784Z" transform="translate(-348.379 -1759.606)" fill="#d6ad55" fill-rule="evenodd" style="isolation: isolate"/>
    </g>
    <g id="Group_409" data-name="Group 409" transform="translate(265.579 1344.575)">
      <path id="Path_194" data-name="Path 194" d="M973.337,1100.893c-10.265-.65-19.128,7.39-19.8,17.958s7.109,19.663,17.374,20.313,19.129-7.39,19.8-17.958-7.109-19.662-17.374-20.313Z" transform="translate(-953.499 -1100.856)" fill="#e58faa" fill-rule="evenodd"/>
      <path id="Path_195" data-name="Path 195" d="M1032.865,1182.061s-4.353-2.945-6.183-4.019-2.266-1.342-2.451-.51,7.464,7.148,6.619,8.1c-1.525,1.725-6.234,4.333-6.261,6.684a38.64,38.64,0,0,0,7.266-2.417c2.516-1.331.5-1.354,2.415-.236s4.957,3.829,6.321,3.45-2.577-4.811-2.261-5.6,6.252-2.034,6.707-3.476-8.265,1.572-7.716-.351,1.927-7.479,1.1-7.8-4.683,6.7-5.554,6.166Z" transform="translate(-1015.296 -1166.41)" fill="#192a6b" fill-rule="evenodd"/>
      <path id="Path_196" data-name="Path 196" d="M1094.319,1244.742a1.008,1.008,0,1,0,.284,1.442,1.04,1.04,0,0,0-.284-1.442Z" transform="translate(-1075.107 -1226.387)" fill="#c3beea" fill-rule="evenodd"/>
    </g>
    <g id="Group_410" data-name="Group 410" transform="translate(201.165 1324.417)">
      <path id="Path_223" data-name="Path 223" d="M1471.332,208.4s12.419-14.2,20.659-15.8,6.883-13.225-.87-11.444,13.2-9.864,7.3-17.591-15.069,15.254-17.813,17.517-.994-8.628-7.01-4.986S1469.736,206.033,1471.332,208.4Z" transform="translate(-1469.608 -161.979)" fill="#9fccc5" fill-rule="evenodd" style="isolation: isolate"/>
      <path id="Path_224" data-name="Path 224" d="M1494.844,207.286l-17.73,15.265c2.842-10.315,19.558-32.272,19.558-32.272s-13.766,16.572-19.044,28.248l.114-17.967-.861,19.739a20.377,20.377,0,0,0-1.127,3.777c-1.925,10.939-1.963,12.824-1.963,12.824l.89.5s.679-3.694,2-12.712Z" transform="translate(-1472.94 -184.519)" fill="#192a6b" fill-rule="evenodd"/>
    </g>
    <g id="Group_411" data-name="Group 411" transform="translate(144.374 1268.31)">
      <path id="Path_153" data-name="Path 153" d="M1486.776,1374.122s-9.273-8.358-16.467-3.533-6.518,13.164-3.882,18.4,2.155,9.684-.107,11.468-3.873,5.71-4.376,6.344.57.232,1.936-2.022a12.017,12.017,0,0,1,4.162-4.508c1.29-.641,2.6-3.661,3.274-4.139s10.417,4.664,18.064-1.761S1494.864,1378.656,1486.776,1374.122Z" transform="translate(-1461.818 -1319.556)" fill="#e58faa"/>
      <path id="Path_154" data-name="Path 154" d="M1650.85,1391.151s-1.833-1.747-1.813-.719.717.749,1,1.746,1.79,1.953,2.967,2.347,2.268.447,1.418-.588A22.277,22.277,0,0,0,1650.85,1391.151Z" transform="translate(-1628.994 -1338.324)" fill="#192a6b"/>
      <path id="Path_155" data-name="Path 155" d="M1571.112,1424.183c5.45,4.917,6.127,12.552-.443,18.073-5.226,4.391-11.429,3.38-15.049,2.451a1.729,1.729,0,0,0-.908.628h0c2.106.408,10.714,4.034,17.617-1.767C1579.518,1437.529,1578.035,1428.955,1571.112,1424.183Z" transform="translate(-1544.767 -1368.751)" fill="#9491c1"/>
      <g id="Group_355" data-name="Group 355" transform="translate(16.553)">
        <path id="Path_156" data-name="Path 156" d="M1621.831,960.61s4.465-7.757,4.06-12.05-13.976-8.833-7.886-26.908,24.11-18.864,29.578-8.751-4.391,26.445-10.333,29.8-8.98,5.03-9.464,6.69-4.284,11.99-4.885,12.158-1.07-.942-1.07-.942Z" transform="translate(-1616.436 -906.399)" fill="#58736f" fill-rule="evenodd" style="isolation: isolate"/>
        <path id="Path_157" data-name="Path 157" d="M1666.83,1164.451s4.158-7.224,4.085-11.587h0c1.223-2.54,2.707-10.89,3.5-15.357.029-.164.058-.323.087-.478a7.727,7.727,0,0,1,.817-2.35s-.994,9.51-1.613,13.142-.693,3.916-1.053,5.833c-.824,2.518-4.19,11.581-4.753,11.739-.6.168-1.071-.942-1.071-.942Z" transform="translate(-1661.435 -1110.24)" fill="#192a6b" fill-rule="evenodd"/>
        <path id="Path_158" data-name="Path 158" d="M1730.006,1025.531c.012-.012,4.036-4.154,7.059-6.909,1.556-1.419,3.119-4.449,4.593-7.306,1.305-2.53,2.543-4.929,3.7-6.06,2.327-2.266,2.6-3.421,2.6-3.424l.517.009s-.322,1.365-2.807,3.785c-1.073,1.045-2.283,3.391-3.56,5.866-1.5,2.913-3.1,6-4.757,7.516-2.985,2.722-7.012,6.866-7.023,6.877l-.329-.353Z" transform="translate(-1717.848 -991.615)" fill="#192a6b"/>
        <path id="Path_159" data-name="Path 159" d="M1724.561,1089.532a89.763,89.763,0,0,0,7.4-5.84,22.738,22.738,0,0,0,5.34-6.605,7.727,7.727,0,0,1,2.387-2.992c2.075-1.244,3.876-5.125,3.881-5.135l.466.152c-.005.012-1.9,4.094-4.167,5.454a7.272,7.272,0,0,0-2.129,2.728,23.393,23.393,0,0,1-5.505,6.8,90.481,90.481,0,0,1-7.467,5.894l-.2-.458Z" transform="translate(-1712.985 -1051.556)" fill="#192a6b"/>
        <path id="Path_160" data-name="Path 160" d="M1735.024,992.829c.013-.01,4.692-3.559,6.169-7.708a24.311,24.311,0,0,1,3.164-5.918h0a21.539,21.539,0,0,0,1.75-2.892,30,30,0,0,1,4.08-5.842l.344.335a29.134,29.134,0,0,0-3.958,5.66,22.121,22.121,0,0,1-1.808,2.992h0a23.705,23.705,0,0,0-3.079,5.752c-1.551,4.358-6.406,8.04-6.419,8.051l-.243-.43Z" transform="translate(-1722.328 -963.611)" fill="#192a6b"/>
        <path id="Path_161" data-name="Path 161" d="M1738.083,953.485c.006-.022,1.85-7.922,5.12-11.166,2.387-2.369,3.642-5.975,4.4-8.145a16.471,16.471,0,0,1,.6-1.577,13.268,13.268,0,0,0,.862-3.671l.528-.064a13.9,13.9,0,0,1-.928,3.9c-.149.3-.334.834-.565,1.5-.776,2.231-2.066,5.939-4.574,8.427-3.13,3.105-5.117,10.515-5.124,10.537l-.314.263Z" transform="translate(-1725.06 -926.457)" fill="#192a6b"/>
        <path id="Path_162" data-name="Path 162" d="M1696.807,1007.384c0-.013-1.458-4.7-2.735-7.848-.71-1.749-.465-4.973-.235-8.013.2-2.582.382-5.03-.04-6.224-.975-2.764-.508-4.11-.506-4.114l.492.091s-.4,1.146.518,3.734c.456,1.292.266,3.8.066,6.435-.226,2.981-.466,6.143.2,7.783,1.293,3.185,2.747,7.872,2.751,7.886l-.51.27Z" transform="translate(-1684.962 -973.179)" fill="#192a6b"/>
        <path id="Path_163" data-name="Path 163" d="M1664.78,1068.769a52.25,52.25,0,0,1-3.71-7.006,15.575,15.575,0,0,1-1.346-7.484c.023-1.331.041-2.352-.464-2.986-1.371-1.723-.847-5.941-.845-5.953l.526-.053c0,.011-.5,4.021.755,5.6.6.757.584,1.855.559,3.285a15.137,15.137,0,0,0,1.3,7.266,51.824,51.824,0,0,0,3.675,6.942l-.451.393Z" transform="translate(-1653.831 -1030.417)" fill="#192a6b"/>
        <path id="Path_164" data-name="Path 164" d="M1719.873,979.606c-.007-.013-2.5-4.426-1.5-8.839a18.672,18.672,0,0,0,.35-6.023h0a16.532,16.532,0,0,1-.013-3.173,20.193,20.193,0,0,0-.532-6.107l.515-.249a20.781,20.781,0,0,1,.543,6.3,16.066,16.066,0,0,0,.015,3.067h0a19.166,19.166,0,0,1-.365,6.2c-.954,4.2,1.453,8.455,1.46,8.467l-.473.359Z" transform="translate(-1707.248 -949.989)" fill="#192a6b"/>
        <path id="Path_165" data-name="Path 165" d="M1738.645,946.5c.006-.021,2.189-7.651.993-11.186-.959-2.833-.078-6.582.453-8.837a14.823,14.823,0,0,0,.315-1.523,14.888,14.888,0,0,1,1.33-3.857l.462.163a14.261,14.261,0,0,0-1.264,3.631,15.056,15.056,0,0,1-.328,1.6c-.516,2.194-1.373,5.84-.46,8.536,1.249,3.694-1.338,11.318-1.345,11.34l-.154.13Z" transform="translate(-1725.562 -919.524)" fill="#192a6b"/>
        <path id="Path_166" data-name="Path 166" d="M1747.178,919.689a13.781,13.781,0,0,0-2.307,6.57c-.36,4.1-4.97,18.029-4.982,18.069l-.277.064c.013-.04,4.378-14.034,4.732-18.062a14.563,14.563,0,0,1,2.451-6.929l.384.287Z" transform="translate(-1726.424 -918.009)" fill="#192a6b"/>
      </g>
      <g id="Group_356" data-name="Group 356" transform="translate(22.425 2.741)">
        <path id="Path_167" data-name="Path 167" d="M1672.92,983.765s4.868-8.611,9.412-11.045,17.808,5.643,31.926-10.924,3.31-31.679-10.3-29.6-23.564,20.576-23.091,27.552.76,10.515-.586,11.975-9.208,11.187-8.989,11.782,1.629.262,1.629.262Z" transform="translate(-1671.287 -932.002)" fill="#779994" fill-rule="evenodd" style="isolation: isolate"/>
        <path id="Path_168" data-name="Path 168" d="M1672.92,1198.33s4.533-8.018,8.934-10.767h0c1.748-2.626,9.125-9.2,13.072-12.718.144-.128.285-.255.42-.378a9.236,9.236,0,0,0,1.819-2.174s-8.85,6.926-12.077,9.764-3.461,3.082-5.143,4.608c-1.983,2.288-8.86,10.849-8.656,11.406.219.6,1.629.262,1.629.262Z" transform="translate(-1671.287 -1146.567)" fill="#192a6b" fill-rule="evenodd"/>
        <path id="Path_169" data-name="Path 169" d="M1830.357,990.283c0-.016,1.548-5.944,2.353-10.167.415-2.175,2.432-5.391,4.335-8.424,1.685-2.686,3.282-5.232,3.663-6.9.764-3.344,1.74-4.309,1.742-4.312l-.341-.413s-1.155,1.14-1.97,4.71c-.353,1.542-1.914,4.033-3.563,6.66-1.94,3.093-4,6.372-4.439,8.692-.8,4.171-2.339,10.1-2.344,10.117l.564.039Z" transform="translate(-1812.824 -957.062)" fill="#192a6b"/>
        <path id="Path_170" data-name="Path 170" d="M1795.823,1029.92a82.473,82.473,0,0,1,1.068-9.752,23.3,23.3,0,0,1,3.156-8.579c.845-1.509,1.495-2.667,1.45-3.859-.094-2.482,2.619-6.439,2.627-6.45l-.452-.28c-.008.012-2.864,4.173-2.761,6.887.038,1-.566,2.077-1.353,3.481a23.977,23.977,0,0,0-3.245,8.839,83.156,83.156,0,0,0-1.077,9.844l.587-.13Z" transform="translate(-1781.966 -993.613)" fill="#192a6b"/>
        <path id="Path_171" data-name="Path 171" d="M1870.734,986.985c0-.017.532-6.093,3.722-9.959a27.223,27.223,0,0,0,3.87-6.372h0a23.435,23.435,0,0,1,1.759-3.279,31.481,31.481,0,0,0,3.2-7.066l-.555-.064a30.59,30.59,0,0,1-3.1,6.85,24.125,24.125,0,0,0-1.822,3.39h0a26.515,26.515,0,0,1-3.759,6.2c-3.351,4.062-3.9,10.365-3.9,10.383l.586-.08Z" transform="translate(-1848.859 -957.221)" fill="#192a6b"/>
        <path id="Path_172" data-name="Path 172" d="M1894.075,984.448c.018-.019,6.715-6.6,7.848-11.334.827-3.459,3.619-6.8,5.3-8.8.532-.636.957-1.144,1.189-1.5a16.9,16.9,0,0,1,3.108-3.061l-.276-.469a17.683,17.683,0,0,0-3.292,3.26c-.207.317-.617.807-1.131,1.422-1.727,2.064-4.6,5.5-5.466,9.131-1.084,4.535-7.2,10.914-7.217,10.932l-.061.424Z" transform="translate(-1870.224 -956.36)" fill="#192a6b"/>
        <path id="Path_173" data-name="Path 173" d="M1833.756,1126.75c.016-.005,5.631-1.845,9.592-2.834,2.2-.551,5.262-2.823,8.147-4.966,2.451-1.821,4.775-3.546,6.236-3.973,3.386-.988,4.429-2.234,4.431-2.237l-.408-.34s-.889,1.058-4.059,1.983c-1.583.462-3.958,2.226-6.464,4.088-2.829,2.1-5.831,4.331-7.9,4.846-4.01,1-9.623,2.84-9.639,2.845l.059.587Z" transform="translate(-1816.31 -1093.088)" fill="#192a6b"/>
        <path id="Path_174" data-name="Path 174" d="M1800.99,1191.577a73.323,73.323,0,0,0,9.379-1.5,21.916,21.916,0,0,0,8.334-3.725c1.313-.875,2.321-1.547,3.279-1.546,2.6,0,6.474-3.136,6.484-3.145l-.285-.461c-.01.009-3.692,2.991-6.071,2.989-1.143,0-2.226.721-3.638,1.661a21.3,21.3,0,0,1-8.088,3.622,72.835,72.835,0,0,1-9.292,1.489l-.1.618Z" transform="translate(-1787.104 -1154.521)" fill="#5b6029"/>
        <path id="Path_175" data-name="Path 175" d="M1872.317,1090.01c.017,0,6.028-.819,9.786-4.471a25.162,25.162,0,0,1,5.785-4.16h0a22.629,22.629,0,0,0,3.174-2.031,28.223,28.223,0,0,1,6.436-3.5l-.082-.577a29.066,29.066,0,0,0-6.639,3.615,21.968,21.968,0,0,1-3.07,1.962h0a25.833,25.833,0,0,0-5.949,4.283c-3.578,3.477-9.372,4.264-9.388,4.266l-.054.614Z" transform="translate(-1850.795 -1059.933)" fill="#192a6b"/>
        <path id="Path_176" data-name="Path 176" d="M1894.183,1034.125c.017-.019,6.226-6.7,10.524-8,3.444-1.046,6.619-4.173,8.527-6.054.568-.56,1.022-1.007,1.317-1.235a17.92,17.92,0,0,0,2.994-3.56l-.46-.27a17.132,17.132,0,0,1-2.809,3.361c-.332.257-.8.719-1.389,1.3-1.857,1.829-4.944,4.87-8.222,5.866-4.49,1.365-10.434,8.367-10.451,8.387l-.03.209Z" transform="translate(-1870.321 -1006.118)" fill="#192a6b"/>
        <path id="Path_177" data-name="Path 177" d="M1917.928,983.49a16.35,16.35,0,0,1-5.072,6.1c-3.862,2.931-14.793,15.629-14.825,15.665l.114.266c.031-.036,11.186-12.579,14.979-15.458a17.257,17.257,0,0,0,5.337-6.445l-.534-.126Z" transform="translate(-1873.757 -977.978)" fill="#192a6b"/>
      </g>
      <g id="Group_357" data-name="Group 357" transform="translate(22.465 21.685)">
        <path id="Path_178" data-name="Path 178" d="M1672.742,1142.772s6.046-5.684,10.006-6.235,10.951,10.725,25.959,1.373,11.874-25.778,1.584-28.553-22.923,9.6-24.684,15.682-2.622,9.176-4.017,9.966-9.9,6.423-9.927,7,1.078.765,1.078.765Z" transform="translate(-1671.663 -1108.958)" fill="#58736f" fill-rule="evenodd" style="isolation: isolate"/>
        <path id="Path_179" data-name="Path 179" d="M1672.742,1307.934s5.63-5.293,9.582-6.158h0c2.03-1.646,9.247-4.766,13.108-6.435l.412-.18a7.163,7.163,0,0,0,1.946-1.239s-8.368,2.927-11.513,4.26-3.385,1.461-5.038,2.2c-2.1,1.281-9.554,6.252-9.576,6.793-.024.578,1.078.765,1.078.765Z" transform="translate(-1671.663 -1274.12)" fill="#192a6b" fill-rule="evenodd"/>
        <path id="Path_180" data-name="Path 180" d="M1836.048,1146.164c.008-.013,2.887-4.528,4.727-7.843.948-1.707,3.348-3.764,5.612-5.7,2-1.718,3.9-3.346,4.677-4.635,1.548-2.583,2.531-3.077,2.533-3.078l-.118-.464s-1.163.582-2.815,3.339a25.184,25.184,0,0,1-4.532,4.464c-2.308,1.978-4.755,4.075-5.766,5.9-1.818,3.274-4.7,7.791-4.706,7.8l.389.221Z" transform="translate(-1818.102 -1122.783)" fill="#192a6b"/>
        <path id="Path_181" data-name="Path 181" d="M1802.432,1157.5a83.22,83.22,0,0,1,3.691-7.919,21.083,21.083,0,0,1,4.82-6.228,7.159,7.159,0,0,0,2.19-2.792c.68-2.138,3.8-4.59,3.805-4.6l-.237-.388c-.009.007-3.288,2.586-4.031,4.923a6.745,6.745,0,0,1-2.007,2.5,21.685,21.685,0,0,0-4.962,6.419,83.913,83.913,0,0,0-3.724,7.994l.456.085Z" transform="translate(-1788.025 -1132.724)" fill="#192a6b"/>
        <path id="Path_182" data-name="Path 182" d="M1874.139,1157.574c.006-.014,2.21-4.993,5.637-7.21a22.566,22.566,0,0,0,4.665-4.117h0a19.941,19.941,0,0,1,2.236-2.2,27.79,27.79,0,0,0,4.4-4.928l-.375-.239a27.068,27.068,0,0,1-4.262,4.778,20.509,20.509,0,0,0-2.313,2.27h0a21.964,21.964,0,0,1-4.532,4.005c-3.6,2.33-5.887,7.495-5.894,7.51l.44.128Z" transform="translate(-1852.07 -1135.679)" fill="#192a6b"/>
        <path id="Path_183" data-name="Path 183" d="M1895.621,1175.942c.018-.01,6.752-3.36,8.981-7,1.627-2.659,4.614-4.561,6.41-5.7a15.348,15.348,0,0,0,1.3-.876,12.3,12.3,0,0,1,3.128-1.561l-.055-.49a12.9,12.9,0,0,0-3.318,1.669c-.242.2-.681.479-1.231.829-1.847,1.176-4.917,3.131-6.627,5.926-2.134,3.486-8.4,6.861-8.413,6.871l-.17.339Z" transform="translate(-1871.645 -1154.811)" fill="#192a6b"/>
        <path id="Path_184" data-name="Path 184" d="M1837.476,1306.866c.013,0,4.554.312,7.664.793,1.73.267,4.586-.641,7.28-1.5,2.288-.728,4.457-1.418,5.624-1.292,2.7.29,3.817-.419,3.819-.421l-.187-.425s-.95.6-3.479.329c-1.263-.136-3.481.57-5.82,1.314-2.641.84-5.443,1.731-7.064,1.481-3.149-.487-7.689-.8-7.7-.8l-.135.518Z" transform="translate(-1819.725 -1283.14)" fill="#192a6b"/>
        <path id="Path_185" data-name="Path 185" d="M1804.324,1342.306a48.407,48.407,0,0,0,7.113,1.852,14.442,14.442,0,0,0,7.039-.383c1.2-.305,2.113-.538,2.794-.218,1.847.869,5.541-.5,5.551-.507l-.064-.486c-.01,0-3.522,1.307-5.211.512-.812-.382-1.8-.13-3.083.2a14.038,14.038,0,0,1-6.833.376,48.071,48.071,0,0,1-7.047-1.834l-.258.49Z" transform="translate(-1790.122 -1316.887)" fill="#192a6b"/>
        <path id="Path_186" data-name="Path 186" d="M1874.584,1280.315c.013,0,4.527,1.315,8.3-.532a17.308,17.308,0,0,1,5.359-1.6h0a15.342,15.342,0,0,0,2.865-.665,18.72,18.72,0,0,1,5.623-.824l.115-.518a19.275,19.275,0,0,0-5.8.855,14.914,14.914,0,0,1-2.77.641h0a17.78,17.78,0,0,0-5.513,1.651c-3.586,1.758-7.938.494-7.95.49l-.223.5Z" transform="translate(-1852.86 -1258.272)" fill="#192a6b"/>
        <path id="Path_187" data-name="Path 187" d="M1895.926,1234.076c.018-.01,6.436-3.607,9.881-3.283,2.761.26,5.955-1.335,7.876-2.294a13.7,13.7,0,0,1,1.307-.609,13.819,13.819,0,0,0,3.2-2.024l-.245-.382a13.2,13.2,0,0,1-3.005,1.915,13.978,13.978,0,0,0-1.378.639c-1.869.933-4.976,2.485-7.6,2.237-3.6-.339-9.926,3.622-9.944,3.633l-.085.167Z" transform="translate(-1871.917 -1213.01)" fill="#192a6b"/>
        <path id="Path_188" data-name="Path 188" d="M1921.39,1190.667a12.779,12.779,0,0,1-5.436,3.483c-3.624,1.2-15.205,8.331-15.239,8.351v.264c.033-.02,11.726-6.945,15.286-8.124a13.506,13.506,0,0,0,5.728-3.69l-.342-.286Z" transform="translate(-1876.195 -1181.92)" fill="#192a6b"/>
      </g>
      <path id="Path_189" data-name="Path 189" d="M1511.833,1382.758c-2.154-2.718-6.918-1.3-9.664,1.526s-4.865,7.466-1.446,11.124S1519.417,1392.33,1511.833,1382.758Z" transform="translate(-1494.979 -1330.459)" fill="#eab0c3"/>
    </g>
  </g>
</svg>
