<svg id="icon3" xmlns="http://www.w3.org/2000/svg" width="82.403" height="58.122" viewBox="0 0 82.403 58.122">
  <path id="Path_515" data-name="Path 515" d="M36.226,97.331a1.21,1.21,0,0,0,1.21-1.21V81.286a3.436,3.436,0,0,1,3.433-3.433H100.3a3.436,3.436,0,0,1,3.433,3.433v9.03a1.209,1.209,0,1,0,2.419,0v-9.03a5.858,5.858,0,0,0-5.851-5.851H40.868a5.858,5.858,0,0,0-5.851,5.851V96.121a1.209,1.209,0,0,0,1.209,1.21Z" transform="translate(-29.381 -75.435)" fill="#1e756f"/>
  <path id="Path_516" data-name="Path 516" d="M81.194,152.357H76.768V123.434a1.209,1.209,0,1,0-2.419,0v28.923H71.343v-7.5a1.209,1.209,0,1,0-2.419,0v7.5h-20.3a1.21,1.21,0,0,0-1.209,1.21v.93a.422.422,0,0,1-.421.421H32.167a.422.422,0,0,1-.421-.421v-.93a1.21,1.21,0,0,0-1.209-1.21H13.479v-40.8H68.924v28.457a1.21,1.21,0,0,0,2.419,0V110.349a1.21,1.21,0,0,0-1.21-1.209H12.27a1.209,1.209,0,0,0-1.209,1.209v42.008H8.055V129.24a1.209,1.209,0,1,0-2.419,0v23.118H1.209A1.21,1.21,0,0,0,0,153.567v3.678a4.6,4.6,0,0,0,4.592,4.592H77.811a4.6,4.6,0,0,0,4.592-4.592v-3.678a1.209,1.209,0,0,0-1.209-1.21Zm-1.209,4.888a2.176,2.176,0,0,1-2.173,2.173H4.592a2.176,2.176,0,0,1-2.173-2.173v-2.469H29.341a2.844,2.844,0,0,0,2.827,2.561H47a2.844,2.844,0,0,0,2.827-2.561H79.985Z" transform="translate(0 -103.715)" fill="#1e756f"/>
  <path id="Path_517" data-name="Path 517" d="M173.523,186.857a1.207,1.207,0,0,0,.443,1.649,14.37,14.37,0,1,0-4.006-3.423,1.207,1.207,0,1,0,1.877-1.518,11.812,11.812,0,0,1-2.654-7.509,11.941,11.941,0,1,1,5.989,10.358,1.207,1.207,0,0,0-1.649.443Z" transform="translate(-139.928 -147.812)" fill="#1e756f"/>
  <path id="Path_518" data-name="Path 518" d="M232.638,221.363a1.206,1.206,0,0,0,.716-.235l7.894-5.809a1.207,1.207,0,0,0,0-1.944l-7.894-5.809a1.207,1.207,0,0,0-1.922.972v11.619a1.207,1.207,0,0,0,1.207,1.207Zm1.207-10.439,4.651,3.422-4.651,3.423Z" transform="translate(-194.183 -186.102)" fill="#1e756f"/>
</svg>
