<svg id="icon6" xmlns="http://www.w3.org/2000/svg" width="71.451" height="76.13" viewBox="0 0 71.451 76.13">
  <path id="Path_533" data-name="Path 533" d="M78.823,0H75.55a1.116,1.116,0,0,0,0,2.231h3.273a6.126,6.126,0,0,1,6.13,6.108V34.151a6.126,6.126,0,0,1-6.13,6.108H75.111a1.116,1.116,0,0,0-.678.229L67.621,45.7V41.375a1.115,1.115,0,0,0-1.115-1.115H52.931a6.1,6.1,0,0,1-3.122-.851V26.888A6.805,6.805,0,0,0,46.8,21.245V8.339a6.126,6.126,0,0,1,6.131-6.108H68.56A1.116,1.116,0,0,0,68.56,0H52.931A8.36,8.36,0,0,0,44.57,8.339V20.265a6.838,6.838,0,0,0-1.59-.188H22.562a6.828,6.828,0,0,0-6.829,6.812V29.3a1.116,1.116,0,0,0,2.231,0V26.888a4.6,4.6,0,0,1,4.6-4.581H42.98a4.6,4.6,0,0,1,4.6,4.581V39.852a1.116,1.116,0,0,0,0,.3v7.1c0,.14-.008.28-.021.419h-2.3A5.174,5.174,0,0,0,40.172,51.9a1.118,1.118,0,0,0-.289.161l-4.989,3.852V52.939a1.115,1.115,0,0,0-1.115-1.115H22.562a4.6,4.6,0,0,1-4.6-4.581V35.988a1.116,1.116,0,0,0-2.231,0V47.243a6.828,6.828,0,0,0,6.829,6.812h10.1v4.124a1.132,1.132,0,0,0,1.8.883l5.627-4.344V67.265a5.17,5.17,0,0,0,5.17,5.158H52.1v2.6a1.132,1.132,0,0,0,1.8.883l4.514-3.486h1.334a5.17,5.17,0,0,0,5.17-5.158v-1.98a1.116,1.116,0,0,0-2.231,0v1.98a2.937,2.937,0,0,1-2.94,2.927H58.032a1.114,1.114,0,0,0-.681.233l-3.019,2.33V71.307a1.115,1.115,0,0,0-1.115-1.115h-7.96a2.937,2.937,0,0,1-2.94-2.927V52.82a2.936,2.936,0,0,1,2.94-2.927H59.747a2.937,2.937,0,0,1,2.94,2.927V58.3a1.116,1.116,0,0,0,2.231,0V52.82a5.17,5.17,0,0,0-5.17-5.158H49.8c.008-.139.013-5.773.013-5.773a8.349,8.349,0,0,0,3.122.6H65.391v5.467a1.132,1.132,0,0,0,1.793.886l8.3-6.353h3.335a8.36,8.36,0,0,0,8.361-8.339V8.339A8.36,8.36,0,0,0,78.823,0Z" transform="translate(-15.733)" fill="#1e756f"/>
  <path id="Path_534" data-name="Path 534" d="M282.279,54.668a2.325,2.325,0,0,0-2.859,2.221,6.552,6.552,0,0,1-1.64,4.338L274.707,64.7a1.113,1.113,0,0,0-.934-.507h-6a1.115,1.115,0,0,0-1.115,1.115v13.5a1.115,1.115,0,0,0,1.115,1.115h6a1.115,1.115,0,0,0,1.014-.652,7.793,7.793,0,0,0,4.054,1.143h10.6a2.919,2.919,0,0,0,2.881-3.022c-.034-.716,0-10.324,0-10.538a2.886,2.886,0,0,0-2.88-2.884l-5.513-.017.228-.54a8.709,8.709,0,0,0-.459-7.664,2.273,2.273,0,0,0-1.423-1.084Zm-9.622,23.026h-3.768V66.427h3.768ZM289.442,66.2a.654.654,0,0,1,.653.653c0,.212,0,.788-.005,1.569-.017,4.312-.027,8.395,0,9.074a.653.653,0,0,1-.652.686h-10.6a5.554,5.554,0,0,1-3.483-1.233l-.469-.38v-8.7l4.564-5.165a8.783,8.783,0,0,0,2.2-5.814.062.062,0,0,1,.115-.03,6.465,6.465,0,0,1,.341,5.689l-.88,2.085a1.115,1.115,0,0,0,1.024,1.549Z" transform="translate(-229.348 -46.428)" fill="#1e756f"/>
  <path id="Path_535" data-name="Path 535" d="M73.576,203.49a1.115,1.115,0,1,0,0,2.231h3.288l-.614,3.715a1.115,1.115,0,1,0,2.2.364l.674-4.078h2.691l-.614,3.715a1.115,1.115,0,1,0,2.2.364l.674-4.078h4.475a1.115,1.115,0,1,0,0-2.231H84.445l.45-2.721h3.656a1.115,1.115,0,1,0,0-2.231H85.264l.614-3.715a1.115,1.115,0,1,0-2.2-.364L83,198.539H80.312l.614-3.715a1.115,1.115,0,0,0-2.2-.364l-.674,4.078H73.576a1.115,1.115,0,1,0,0,2.231h4.106l-.45,2.721Zm6.367-2.721h2.691l-.45,2.721H79.494Z" transform="translate(-64.026 -164.751)" fill="#1e756f"/>
  <path id="Path_536" data-name="Path 536" d="M226.314,369.363a3.751,3.751,0,0,0-3.3-.742,4.149,4.149,0,0,0-3.094,4.187,5.476,5.476,0,0,0,1.648,3.92,16.361,16.361,0,0,0,4.238,2.923,1.115,1.115,0,0,0,1.045,0c3.533-1.873,5.886-3.753,5.886-6.843a4.123,4.123,0,0,0-3.2-4.165,3.74,3.74,0,0,0-3.218.72Zm4.191,3.445c0,1.667-1.105,2.9-4.178,4.59-3.072-1.691-4.178-2.924-4.178-4.59a1.908,1.908,0,0,1,1.39-2.019,1.666,1.666,0,0,1,.393-.047,1.539,1.539,0,0,1,1.4.9,1.115,1.115,0,0,0,2-.04,1.449,1.449,0,0,1,1.71-.779A1.886,1.886,0,0,1,230.505,372.808Z" transform="translate(-189.558 -313.716)" fill="#1e756f"/>
</svg>
