<svg id="icon4" xmlns="http://www.w3.org/2000/svg" width="76.978" height="67.926" viewBox="0 0 76.978 67.926">
  <path id="Path_509" data-name="Path 509" d="M71.33,30.107H46.709a1.13,1.13,0,0,0,0,2.26h24.62a3.393,3.393,0,0,1,3.389,3.389V75.3H69.3V40.592A3.393,3.393,0,0,0,65.913,37.2H11.066a3.393,3.393,0,0,0-3.389,3.389V75.3H2.26V35.756a3.393,3.393,0,0,1,3.389-3.389H42.19a1.13,1.13,0,0,0,0-2.26H5.649A5.656,5.656,0,0,0,0,35.756V81.439a5.655,5.655,0,0,0,5.649,5.649H30.491l-1.139,8.684H25.338a1.13,1.13,0,0,0,0,2.26h26.3a1.13,1.13,0,0,0,0-2.26H47.626l-1.139-8.684H58.459a1.13,1.13,0,0,0,0-2.26H5.649A3.393,3.393,0,0,1,2.26,81.439V77.559H74.719v3.881a3.393,3.393,0,0,1-3.389,3.389H62.979a1.13,1.13,0,1,0,0,2.26h8.351a5.655,5.655,0,0,0,5.649-5.649V35.756a5.655,5.655,0,0,0-5.649-5.649ZM45.347,95.773H31.632l1.139-8.684H44.208ZM9.936,40.591a1.131,1.131,0,0,1,1.13-1.13H65.913a1.131,1.131,0,0,1,1.13,1.13v5.561H9.936Zm0,7.82H67.043V75.3H61.55V70.263a1.13,1.13,0,0,0-1.13-1.13H41.194a1.13,1.13,0,0,0-1.13,1.13V75.3h-3.15V70.263a1.13,1.13,0,0,0-1.13-1.13H16.559a1.13,1.13,0,0,0-1.13,1.13V75.3H9.936ZM59.29,75.3H42.324V71.392H59.29Zm-24.635,0H17.689V71.392H34.655Z" transform="translate(0 -30.107)" fill="#1e756f"/>
  <path id="Path_510" data-name="Path 510" d="M84.941,102.455a1.735,1.735,0,1,0,1.735,1.735A1.737,1.737,0,0,0,84.941,102.455Z" transform="translate(-70.696 -91.578)" fill="#1e756f"/>
  <path id="Path_511" data-name="Path 511" d="M121.984,102.455a1.735,1.735,0,1,0,1.735,1.735,1.737,1.737,0,0,0-1.735-1.735Z" transform="translate(-102.17 -91.578)" fill="#1e756f"/>
  <path id="Path_512" data-name="Path 512" d="M159.026,102.455a1.735,1.735,0,1,0,1.735,1.735,1.737,1.737,0,0,0-1.735-1.735Z" transform="translate(-133.642 -91.578)" fill="#1e756f"/>
  <path id="Path_513" data-name="Path 513" d="M103.751,189.768h8.219a1.13,1.13,0,0,0,0-2.26h-7.09v-9.914h41.6v9.914h-29.99a1.13,1.13,0,1,0,0,2.26h31.12a1.13,1.13,0,0,0,1.13-1.13V176.465a1.13,1.13,0,0,0-1.13-1.13H103.751a1.13,1.13,0,0,0-1.13,1.13v12.173a1.13,1.13,0,0,0,1.13,1.13Z" transform="translate(-87.192 -153.5)" fill="#1e756f"/>
</svg>
