<svg xmlns="http://www.w3.org/2000/svg" width="84.19" height="64.869" viewBox="0 0 84.19 64.869">
  <path id="icon2" d="M84.19,74.642a7.88,7.88,0,0,0-13.231-5.784,4.413,4.413,0,0,0-6.021,6.01L52.6,87.207V68.752h7.9a1.233,1.233,0,0,0,0-2.467H52.6v-6.3a1.233,1.233,0,0,0-2.467,0v6.3H20.886a1.233,1.233,0,1,0,0,2.467h5.382L11.641,77.189l-.043.027V68.752h4.355a1.233,1.233,0,1,0,0-2.467H11.6v-6.3a1.233,1.233,0,0,0-2.467,0v6.3h-7.9a1.233,1.233,0,0,0,0,2.467h7.9v44.868h-7.9a1.233,1.233,0,1,0,0,2.467h7.9v6.3a1.233,1.233,0,0,0,2.467,0v-6.3H42.235a1.233,1.233,0,0,0,0-2.467H35.463l5.2-3a2.885,2.885,0,0,0,1.879.7,2.945,2.945,0,0,0,.99-.173l6.6-2.351v4.824H47.168a1.233,1.233,0,1,0,0,2.467h2.965v6.3a1.233,1.233,0,0,0,2.467,0v-6.3h7.9a1.233,1.233,0,0,0,0-2.467H52.6v-5.7l2.194-.782h0a1.253,1.253,0,0,0,.117-.049l.027-.014q.042-.021.082-.046l.035-.022c.025-.016.049-.034.073-.052l.028-.022c.032-.026.062-.053.092-.082l0,0L76.083,86.013a4.413,4.413,0,0,0,6.01-6.022,7.819,7.819,0,0,0,2.1-5.35Zm-4.053-3.829a5.411,5.411,0,0,1,.315,7.313L72.826,70.5a5.423,5.423,0,0,1,7.312.314ZM47.36,107.164l-3.573-3.573,2.1-5.9a2.826,2.826,0,0,1,2.253.421c.471.471.582,1.49.322,2.947,0,.007,0,.014,0,.021-.006.036-.01.073-.013.109,0,.015,0,.029,0,.044,0,.032,0,.064,0,.1a1.233,1.233,0,0,0,1.448,1.161c1.458-.26,2.477-.149,2.948.322a2.826,2.826,0,0,1,.421,2.252Zm7.227-6.1a3.909,3.909,0,0,0-1.929-1.027l11-11a1.233,1.233,0,1,0-1.744-1.744l-11,11a3.74,3.74,0,0,0-2.958-2.954L66.568,76.726l2.956,2.956-3.585,3.585a1.233,1.233,0,0,0,1.744,1.744l3.585-3.585,2.956,2.956L55.612,102.995a3.907,3.907,0,0,0-1.025-1.931ZM50.133,68.752v8.472L50.1,77.2,35.474,68.752ZM11.6,81.522a2.552,2.552,0,0,1,1.272-2.2l16.731-9.651a2.542,2.542,0,0,1,2.536,0l16.722,9.663a2.547,2.547,0,0,1,1.269,2.2v8.137L44.7,95.111V86.095a5.017,5.017,0,0,0-2.5-4.334l-8.825-5.1a5.017,5.017,0,0,0-5,0l-8.828,5.093a5.018,5.018,0,0,0-2.505,4.332V96.276a5.016,5.016,0,0,0,2.5,4.334l8.825,5.1a5.016,5.016,0,0,0,5,0l8.828-5.093.048-.03-2.433,6.828a2.95,2.95,0,0,0-.171.949L32.127,112.7a2.546,2.546,0,0,1-2.538,0l-16.723-9.663a2.541,2.541,0,0,1-1.264-2.2Zm30.626,4.573V96.286a2.544,2.544,0,0,1-1.271,2.2l-8.828,5.093a2.543,2.543,0,0,1-2.536,0l-8.825-5.1a2.543,2.543,0,0,1-1.265-2.2V86.085a2.544,2.544,0,0,1,1.271-2.2L29.6,78.8a2.544,2.544,0,0,1,2.537,0l8.825,5.1a2.544,2.544,0,0,1,1.265,2.2ZM11.6,113.619v-8.472l.034.021,14.625,8.451H11.6Zm31.109-4.8a.452.452,0,0,1-.578-.578l.742-2.082,1.918,1.918ZM79.633,83.549a1.949,1.949,0,0,1-2.754,0l-.038-.038-9.4-9.4-.038-.038a1.948,1.948,0,0,1,2.754-2.754l9.477,9.477a1.95,1.95,0,0,1,0,2.754Z" transform="translate(0 -58.751)" fill="#1e756f"/>
</svg>
