<svg xmlns="http://www.w3.org/2000/svg" width="62.945" height="62.96" viewBox="0 0 62.945 62.96">
  <g id="icon1" transform="translate(0 0)">
    <g id="Group_447" data-name="Group 447" transform="translate(0 0)">
      <path id="Path_549" data-name="Path 549" d="M1019.339,651.852c-.883,0-1.766.01-2.649,0a3.523,3.523,0,0,1-3.537-3.262c-.1-2.005-.092-4.022,0-6.028a3.387,3.387,0,0,1,3.237-3.229c2.006-.089,4.022-.094,6.028.005a3.5,3.5,0,0,1,3.253,3.544q.023,2.685,0,5.371a3.617,3.617,0,0,1-3.607,3.6C1021.154,651.861,1020.246,651.853,1019.339,651.852Zm3.179-6.274c0-.76-.015-1.52,0-2.279.015-.612-.219-.894-.864-.883-1.519.025-3.039.021-4.558,0-.637-.008-.872.273-.864.89q.029,2.279,0,4.559c-.008.6.249.841.835.836,1.544-.012,3.088-.015,4.632,0,.6.007.836-.264.82-.847C1022.5,647.1,1022.518,646.338,1022.518,645.578Z" transform="translate(-1003.602 -629.828)" fill="#1e756f"/>
      <path id="Path_550" data-name="Path 550" d="M1232.811,651.873c-.907,0-1.815.011-2.721,0a3.615,3.615,0,0,1-3.562-3.57q-.025-2.722,0-5.444a3.5,3.5,0,0,1,3.221-3.5c2.03-.1,4.071-.094,6.1,0a3.371,3.371,0,0,1,3.19,3.194c.091,2.03.1,4.071,0,6.1a3.51,3.51,0,0,1-3.5,3.218C1234.627,651.884,1233.72,651.873,1232.811,651.873Zm.037-9.428c-.784,0-1.569.015-2.353,0-.551-.014-.822.209-.82.772q.01,2.39,0,4.779c0,.482.215.728.708.727q2.426,0,4.853,0a.63.63,0,0,0,.716-.722q-.009-2.389,0-4.779c0-.57-.286-.784-.826-.774C1234.368,642.455,1233.608,642.445,1232.848,642.445Z" transform="translate(-1185.59 -629.849)" fill="#1e756f"/>
      <path id="Path_551" data-name="Path 551" d="M1019.4,852.735c.907,0,1.815-.011,2.722,0a3.611,3.611,0,0,1,3.566,3.563q.027,2.722,0,5.445a3.5,3.5,0,0,1-3.218,3.5c-2.03.1-4.071.095-6.1,0a3.371,3.371,0,0,1-3.193-3.19c-.092-2.03-.1-4.071,0-6.1a3.51,3.51,0,0,1,3.5-3.221C1017.584,852.724,1018.492,852.735,1019.4,852.735Zm3.14,6.283c0-.76-.015-1.52,0-2.279.015-.576-.2-.863-.81-.857-1.544.017-3.088.014-4.632,0-.578,0-.853.217-.845.826.02,1.544.016,3.088,0,4.632-.005.6.268.832.852.826q2.316-.022,4.632,0c.566.006.8-.248.8-.8C1022.532,860.587,1022.538,859.8,1022.54,859.018Z" transform="translate(-1003.624 -811.845)" fill="#1e756f"/>
      <path id="Path_552" data-name="Path 552" d="M959.554,911.219a30.813,30.813,0,0,1-4.109-.228,7.732,7.732,0,0,1-6.4-7.782c-.051-1.988-.022-3.978-.005-5.966.01-1.138.624-1.811,1.588-1.807s1.555.691,1.557,1.828c0,1.915-.005,3.83,0,5.746a4.758,4.758,0,0,0,5,4.995c1.94.008,3.88,0,5.819,0a1.575,1.575,0,1,1,.085,3.139c-1.178.034-2.357.008-3.536.008Z" transform="translate(-948.976 -848.258)" fill="#1e756f"/>
      <path id="Path_553" data-name="Path 553" d="M948.74,585.767a31.177,31.177,0,0,1,.221-4.11,7.621,7.621,0,0,1,7.33-6.374c2.2-.107,4.418-.055,6.628-.033a1.565,1.565,0,0,1,.582,3.029,2.488,2.488,0,0,1-.792.1c-1.915.008-3.831,0-5.746.006a4.755,4.755,0,0,0-5.01,4.983c-.009,1.94,0,3.88,0,5.82a1.58,1.58,0,1,1-3.142.042c-.026-1.153-.006-2.308-.006-3.462Z" transform="translate(-948.74 -575.218)" fill="#1e756f"/>
      <path id="Path_554" data-name="Path 554" d="M1284.95,585.776c0,1.276.039,2.554-.014,3.828a1.429,1.429,0,0,1-1.375,1.378,1.522,1.522,0,0,1-1.653-1.061,2.519,2.519,0,0,1-.074-.726c-.006-1.915,0-3.83,0-5.746a4.761,4.761,0,0,0-5.047-5.021c-1.916-.005-3.831,0-5.746,0a1.565,1.565,0,0,1-1.773-1.536,1.543,1.543,0,0,1,1.709-1.6c2.259-.013,4.521-.053,6.775.054a7.7,7.7,0,0,1,7.179,7.2c.061,1.077.009,2.159.009,3.239Z" transform="translate(-1222.04 -575.261)" fill="#1e756f"/>
      <path id="Path_555" data-name="Path 555" d="M1274.443,911.171c-1.13,0-2.259.015-3.389,0s-1.806-.634-1.8-1.6.7-1.545,1.837-1.547c1.916,0,3.831.006,5.746,0a4.76,4.76,0,0,0,4.985-5.01c.008-1.94,0-3.879,0-5.819a1.55,1.55,0,0,1,1.5-1.735,1.531,1.531,0,0,1,1.64,1.67c.011,2.357.052,4.717-.07,7.069a7.738,7.738,0,0,1-6.921,6.905c-1.173.073-2.355.011-3.533.011Z" transform="translate(-1222.037 -848.273)" fill="#1e756f"/>
      <path id="Path_556" data-name="Path 556" d="M1126.019,731.015v-3.132c-.367,0-.727,0-1.085,0-1.252-.009-2.505.019-3.754-.044a1.54,1.54,0,0,1-1.436-1.578,1.569,1.569,0,0,1,1.579-1.524q4.75-.02,9.5,0a1.553,1.553,0,0,1,.122,3.1c-.532.053-1.073.01-1.674.01v3.161c.495,0,.979-.024,1.46,0a1.571,1.571,0,1,1-.059,3.136q-3.057.014-6.113,0a1.566,1.566,0,1,1-.1-3.129C1124.965,730.985,1125.476,731.015,1126.019,731.015Z" transform="translate(-1094.549 -702.7)" fill="#1e756f"/>
      <path id="Path_557" data-name="Path 557" d="M1211.363,898.542c0-.524-.017-.989,0-1.453a1.594,1.594,0,1,1,3.187-.025c.025.483,0,.968,0,1.486h3.121c0-.486-.009-.988,0-1.49a1.529,1.529,0,0,1,1.471-1.608,1.5,1.5,0,0,1,1.65,1.494c.052,1.052.05,2.11.012,3.163a1.527,1.527,0,0,1-1.7,1.621c-1.177.031-2.355.01-3.532.01q-4.232,0-8.464,0c-1.5,0-2.021-.53-2.03-2.044,0-.859-.022-1.718.008-2.576a1.577,1.577,0,1,1,3.143.064c0,.437,0,.875,0,1.358Z" transform="translate(-1167.316 -848.271)" fill="#1e756f"/>
      <path id="Path_558" data-name="Path 558" d="M1129.125,816.144v-3.118c-.445,0-.9.011-1.351,0a1.6,1.6,0,1,1,.029-3.192c.932-.015,1.865-.018,2.8,0a1.629,1.629,0,0,1,1.755,1.747q.029,2.981,0,5.963a1.576,1.576,0,0,1-1.671,1.739q-4.638.042-9.275,0a1.59,1.59,0,0,1-1.669-1.592,1.617,1.617,0,0,1,1.785-1.544c2.257,0,4.515,0,6.773,0Z" transform="translate(-1094.547 -775.255)" fill="#1e756f"/>
      <path id="Path_559" data-name="Path 559" d="M1129.167,642.463c-2.672,0-5.244.009-7.815,0a1.562,1.562,0,0,1-.126-3.12,6.813,6.813,0,0,1,.734-.026q4.085,0,8.17,0c.147,0,.295,0,.442,0a1.645,1.645,0,0,1,1.792,1.854q.016,2.871,0,5.741a1.617,1.617,0,1,1-3.194-.009C1129.161,645.455,1129.167,644.01,1129.167,642.463Z" transform="translate(-1094.552 -629.868)" fill="#1e756f"/>
      <path id="Path_560" data-name="Path 560" d="M1229.653,834.36h3.144c0-.487-.019-.967,0-1.446a1.542,1.542,0,0,1,1.654-1.666c1-.035,2.011-.035,3.014,0a1.53,1.53,0,0,1,1.614,1.619,1.551,1.551,0,0,1-1.712,1.518c-.439.006-.878,0-1.426,0,0,.537.01,1.041,0,1.544a1.472,1.472,0,0,1-1.488,1.581q-3.235.063-6.469,0a1.447,1.447,0,0,1-1.457-1.531q-.03-1.581,0-3.162a1.56,1.56,0,0,1,3.118-.089C1229.689,833.257,1229.653,833.794,1229.653,834.36Z" transform="translate(-1185.589 -793.505)" fill="#1e756f"/>
      <path id="Path_561" data-name="Path 561" d="M1122.826,898.431c0,.541.011.98,0,1.419a1.6,1.6,0,0,1-1.615,1.719,1.585,1.585,0,0,1-1.575-1.681c-.023-.98-.026-1.962,0-2.943a1.549,1.549,0,0,1,1.608-1.646q3.126-.054,6.253,0a1.5,1.5,0,0,1,1.576,1.647,1.535,1.535,0,0,1-1.672,1.482C1125.908,898.438,1124.416,898.431,1122.826,898.431Z" transform="translate(-1094.44 -848.119)" fill="#1e756f"/>
      <path id="Path_562" data-name="Path 562" d="M1058.907,748.986c-.572,0-1.036.018-1.5,0a1.635,1.635,0,0,1-1.661-1.617,1.613,1.613,0,0,1,1.633-1.565c1.029-.032,2.061-.037,3.09,0a1.563,1.563,0,0,1,1.578,1.671c.009.463,0,.925,0,1.481.543,0,1.029-.022,1.512,0a1.574,1.574,0,1,1-.077,3.141q-1.435.013-2.87,0a1.548,1.548,0,0,1-1.705-1.607C1058.884,750.03,1058.907,749.566,1058.907,748.986Z" transform="translate(-1039.983 -720.646)" fill="#1e756f"/>
      <path id="Path_563" data-name="Path 563" d="M1272.417,752.221c-.6,0-1.114.017-1.625,0a1.526,1.526,0,0,1-1.512-1.49,1.509,1.509,0,0,1,1.369-1.617,8.069,8.069,0,0,1,.88-.038c.266-.006.531,0,.887,0,0-.573-.014-1.079,0-1.584a1.588,1.588,0,0,1,1.535-1.568,1.522,1.522,0,0,1,1.569,1.441c.044,2.2.048,4.41-.005,6.614a1.451,1.451,0,0,1-1.663,1.381,1.524,1.524,0,0,1-1.435-1.564C1272.406,753.3,1272.417,752.815,1272.417,752.221Z" transform="translate(-1222.054 -720.769)" fill="#1e756f"/>
      <path id="Path_564" data-name="Path 564" d="M1017.982,809.855c.98,0,1.96-.011,2.94,0a1.606,1.606,0,1,1,0,3.191q-2.94.022-5.88,0a1.6,1.6,0,1,1,0-3.192C1016.022,809.845,1017,809.855,1017.982,809.855Z" transform="translate(-1003.763 -775.283)" fill="#1e756f"/>
      <path id="Path_565" data-name="Path 565" d="M1226.558,750.628c0-1-.008-2.008,0-3.012a1.6,1.6,0,0,1,1.551-1.7,1.574,1.574,0,0,1,1.577,1.6q.054,3.121,0,6.244a1.512,1.512,0,0,1-1.626,1.6,1.549,1.549,0,0,1-1.506-1.72C1226.552,752.636,1226.558,751.632,1226.558,750.628Z" transform="translate(-1185.625 -720.768)" fill="#1e756f"/>
      <path id="Path_566" data-name="Path 566" d="M1101.744,812.987c-.513,0-1.028.022-1.541,0a1.592,1.592,0,1,1,0-3.184c1.026-.031,2.055-.034,3.081,0a1.612,1.612,0,0,1,1.606,1.584,1.631,1.631,0,0,1-1.6,1.594C1102.772,813.011,1102.257,812.986,1101.744,812.987Z" transform="translate(-1076.507 -775.218)" fill="#1e756f"/>
      <path id="Path_567" data-name="Path 567" d="M1122.865,684.988c-.489,0-.979.021-1.467,0a1.633,1.633,0,0,1-1.65-1.62,1.613,1.613,0,0,1,1.629-1.562c1.026-.033,2.055-.034,3.08,0a1.589,1.589,0,0,1,.021,3.178C1123.943,685.014,1123.4,684.987,1122.865,684.988Z" transform="translate(-1094.553 -666.078)" fill="#1e756f"/>
      <path id="Path_568" data-name="Path 568" d="M1016.295,749.1c0,.515.013,1.031,0,1.546a1.545,1.545,0,0,1-1.515,1.57,1.473,1.473,0,0,1-1.588-1.4c-.06-1.149-.058-2.306,0-3.455a1.539,1.539,0,0,1,1.568-1.449,1.59,1.59,0,0,1,1.539,1.567C1016.31,748.023,1016.295,748.564,1016.295,749.1Z" transform="translate(-1003.656 -720.768)" fill="#1e756f"/>
    </g>
  </g>
</svg>
