<svg id="icon5" xmlns="http://www.w3.org/2000/svg" width="52.571" height="71.703" viewBox="0 0 52.571 71.703">
  <path id="Path_537" data-name="Path 537" d="M114.39,163.377V112H112v51.377a5.972,5.972,0,0,0,5.974,5.974h27.48v-2.39h-27.48A3.6,3.6,0,0,1,114.39,163.377Z" transform="translate(-112 -97.662)" fill="#1e756f"/>
  <path id="Path_538" data-name="Path 538" d="M216,448h11.948v2.39H216Z" transform="translate(-200.468 -383.481)" fill="#1e756f"/>
  <path id="Path_539" data-name="Path 539" d="M144,120.364a1.2,1.2,0,0,0,1.195,1.195h1.3a1.789,1.789,0,0,0,3.375,0h2.6a1.789,1.789,0,0,0,3.375,0h1.3a1.2,1.2,0,0,0,1.195-1.195v-3.584a1.217,1.217,0,0,0-.657-1.075l-2.031-1.016-1.016-2.031a1.2,1.2,0,0,0-1.075-.657h-4.779a1.217,1.217,0,0,0-1.075.657l-1.016,2.031-2.031,1.016a1.2,1.2,0,0,0-.657,1.075Zm2.39-2.853,1.732-.866a1.246,1.246,0,0,0,.538-.538l.866-1.732h3.3l.866,1.732a1.246,1.246,0,0,0,.538.538l1.732.866v1.658H146.4v-1.658Z" transform="translate(-139.221 -97.662)" fill="#1e756f"/>
  <path id="Path_540" data-name="Path 540" d="M281.525,104v1.583l-1.643-1.314a1.211,1.211,0,0,0-1.493,0l-5.974,4.779a1.2,1.2,0,0,0,.732,2.136v3.584a1.2,1.2,0,0,0,1.195,1.195H283.9a1.2,1.2,0,0,0,1.195-1.195v-3.584a1.17,1.17,0,0,0,1.12-.806,1.193,1.193,0,0,0-.388-1.329l-1.942-1.553V104Zm1.195,5.974v3.584h-2.39v-2.39h-2.39v2.39h-2.39v-3.584a1.274,1.274,0,0,0-.045-.343l3.629-2.912,3.629,2.912A1.271,1.271,0,0,0,282.72,109.974Z" transform="translate(-248.07 -90.857)" fill="#1e756f"/>
  <path id="Path_541" data-name="Path 541" d="M283.871,211.973l.792-1.583h1.658V208h-2.39a1.217,1.217,0,0,0-1.075.657l-.866,1.732h-8.812a1.216,1.216,0,0,0-.926.433,1.232,1.232,0,0,0-.254.986l1.195,5.974a1.359,1.359,0,0,0,.284.568,1.756,1.756,0,0,0-.3,1,1.792,1.792,0,1,0,3.584,0,2.008,2.008,0,0,0-.1-.6h2.6a2.008,2.008,0,0,0-.1.6,1.792,1.792,0,1,0,3.584,0,1.878,1.878,0,0,0-.3-1,1.2,1.2,0,0,0,.284-.568Zm-2.6.806-.717,3.584h-5.212l-.717-3.584Z" transform="translate(-248.086 -179.325)" fill="#1e756f"/>
  <path id="Path_542" data-name="Path 542" d="M144,331.584a1.2,1.2,0,0,0,1.195,1.195h1.195v5.974a1.195,1.195,0,1,0,2.39,0v-1.195h5.974v1.195a1.195,1.195,0,1,0,2.39,0V335.9l.657.329,1.075-2.136-2.076-1.045a3.562,3.562,0,0,0-3.241-2.061h-2.838l-.045-.3A3.122,3.122,0,0,0,147.584,328a1.2,1.2,0,0,0-1.195,1.195v.209l-1.419.269a1.188,1.188,0,0,0-.971,1.18Zm4.779,1.389a1.176,1.176,0,0,0,.9.4h3.883a1.2,1.2,0,0,1,1.195,1.195v.6h-5.974Z" transform="translate(-139.221 -281.403)" fill="#1e756f"/>
  <path id="Path_543" data-name="Path 543" d="M161.853,60.282l-6.84-7.692V21.974A5.972,5.972,0,0,0,149.039,16H117.974A5.972,5.972,0,0,0,112,21.974v5.974h2.39V21.974a3.6,3.6,0,0,1,3.584-3.584h31.065a3.6,3.6,0,0,1,3.584,3.584v42.52l-3.9-3.9a5.375,5.375,0,0,0-3.838-1.583,5.428,5.428,0,0,0-3.838,9.26l.314.314H139.48V66.2h-2.39v3.584a1.2,1.2,0,0,0,1.195,1.195h2.853l-1.523,3.047,2.136,1.075,2.046-4.092,3.7,3.7a10.8,10.8,0,0,0-.433,10.514l.792,1.568V87.7h2.39V86.508a1.342,1.342,0,0,0-.119-.538l-.911-1.822a8.41,8.41,0,0,1,.806-8.871,1.2,1.2,0,0,0-.1-1.568L142.8,66.585a3.031,3.031,0,0,1,4.286-4.286l5.929,5.929,3.584,3.584,1.688-1.688-3.271-3.241V56.175l5.063,5.69a8.383,8.383,0,0,1,2.106,5.556V87.688h2.39V67.421a10.769,10.769,0,0,0-2.718-7.139Z" transform="translate(-112 -16)" fill="#1e756f"/>
  <path id="Path_544" data-name="Path 544" d="M144,64h2.39v2.39H144Z" transform="translate(-139.221 -56.831)" fill="#1e756f"/>
  <path id="Path_545" data-name="Path 545" d="M176,64h2.39v2.39H176Z" transform="translate(-166.442 -56.831)" fill="#1e756f"/>
  <path id="Path_546" data-name="Path 546" d="M208,64h2.39v2.39H208Z" transform="translate(-193.662 -56.831)" fill="#1e756f"/>
  <path id="Path_547" data-name="Path 547" d="M165.974,233.558v-3.584h3.584v-2.39h-3.584V224h-2.39v3.584H160v2.39h3.584v3.584Z" transform="translate(-152.831 -192.935)" fill="#1e756f"/>
</svg>
