<svg id="leaf" xmlns="http://www.w3.org/2000/svg" width="63.612" height="112.615" viewBox="0 0 63.612 112.615">
  <path id="Path_223" data-name="Path 223" d="M1473.28,260.832s26.446-30.236,43.992-33.656,14.657-28.163-1.852-24.37,28.1-21,15.535-37.46-32.088,32.484-37.933,37.3-2.116-18.372-14.928-10.617S1469.881,255.79,1473.28,260.832Z" transform="translate(-1469.608 -161.979)" fill="#9fccc5" fill-rule="evenodd" style="isolation: isolate"/>
  <path id="Path_224" data-name="Path 224" d="M1518.622,226.495,1480.867,259c6.052-21.966,41.649-68.721,41.649-68.721s-29.314,35.29-40.553,60.154l.244-38.259-1.835,42.033a43.441,43.441,0,0,0-2.4,8.044c-4.1,23.294-4.18,27.309-4.18,27.309l1.895,1.07s1.446-7.867,4.268-27.07Z" transform="translate(-1471.978 -178.014)" fill="#192a6b" fill-rule="evenodd"/>
</svg>
